<svg width="115" height="27" viewBox="0 0 115 27" fill="none" xmlns="http://www.w3.org/2000/svg">
<g clip-path="url(#clip0_7_74490)">
<path d="M24.7499 19.0498C25.9816 19.8968 27.4384 20.3503 28.9301 20.3509C31.0198 20.3476 32.2403 19.24 32.2403 17.6333C32.2403 16.1442 31.3955 15.2938 29.2582 14.4661C26.676 13.5442 25.0789 12.1972 25.0789 9.95186C25.0789 7.47036 27.1218 5.6267 30.1974 5.6267C31.4104 5.58538 32.614 5.85364 33.6963 6.40651V8.32954C32.6098 7.69751 31.3819 7.35305 30.1273 7.32834C27.9666 7.33187 27.1451 8.62837 27.1451 9.71575C27.1451 11.2048 28.1077 11.9376 30.2917 12.788C32.9682 13.8282 34.3301 15.1282 34.3301 17.4676C34.3301 19.9255 32.5227 22.0524 28.7892 22.0524C27.263 22.0524 25.5958 21.6037 24.7501 21.0365L24.7499 19.0498Z" fill="#2B2828"/>
<path d="M37.0565 10.3777H38.9004V11.601H38.9472C39.726 10.6973 40.6386 10.1172 42.4937 10.1172C45.6328 10.1172 47.8104 12.4567 47.8104 15.9314C47.8104 20.0439 45.3217 22.0759 42.6452 22.0759C40.7925 22.0759 39.7094 21.5229 39.1462 20.77H39.0995V26.4961H37.0566L37.0565 10.3777ZM39.0995 17.16C39.1047 17.4461 39.1363 17.731 39.1938 18.0113C39.3657 18.7073 39.7643 19.3253 40.3261 19.7666C40.8878 20.2079 41.5802 20.447 42.2928 20.4457C44.4768 20.4457 45.7441 18.6491 45.7441 16.0256C45.7441 13.7331 44.5468 11.7718 42.3629 11.7718C41.6325 11.7921 40.9294 12.056 40.3642 12.5223C39.7991 12.9885 39.4038 13.6305 39.2405 14.3474C39.1574 14.6239 39.1099 14.91 39.0995 15.1987V17.16Z" fill="#2B2828"/>
<path d="M56.55 21.8164V20.7702H56.4791C55.9583 21.4458 54.6249 22.0761 53.0044 22.0761C50.7035 22.0761 49.5288 20.4458 49.5288 18.7912C49.5288 16.0257 51.9708 14.5132 56.3622 14.5375V14.3005C56.3622 13.3552 56.1034 11.6535 53.7791 11.6535C52.7337 11.6569 51.7096 11.9515 50.8204 12.5047V10.8626C51.8371 10.3647 52.9542 10.1097 54.0848 10.1174C57.5595 10.1174 58.405 12.5047 58.405 14.7972L58.3991 21.8164H56.55ZM56.4089 15.9787C54.1548 15.9316 51.595 16.3333 51.595 18.5551C51.5737 18.8193 51.6094 19.0849 51.6995 19.3339C51.7896 19.5829 51.9321 19.8094 52.1172 19.9979C52.3023 20.1863 52.5256 20.3323 52.7719 20.4259C53.0183 20.5195 53.2818 20.5584 53.5444 20.54C54.145 20.5562 54.735 20.3793 55.2289 20.0351C55.7228 19.6909 56.0949 19.1972 56.2911 18.6257C56.3645 18.4128 56.4042 18.1896 56.4088 17.9644L56.4089 15.9787Z" fill="#2B2828"/>
<path d="M61.7303 10.3777H63.5263V12.0361H63.6198C64.1212 10.7136 65.6592 10.1172 66.597 10.1172C66.8524 10.1202 67.1064 10.1552 67.3532 10.2213V12.1718C67.1214 12.1207 66.8858 12.0894 66.6487 12.0785C65.1927 12.0785 64.1599 13.1894 63.8785 14.7499C63.82 15.0696 63.7885 15.3938 63.7842 15.7188V21.8163H61.7413L61.7303 10.3777Z" fill="#2B2828"/>
<path d="M87.2452 16.002C87.2452 20.2331 84.3332 22.0759 81.5865 22.0759C78.5101 22.0759 76.1389 19.807 76.1389 16.1911C76.1389 12.3626 78.6277 10.1172 81.7743 10.1172C85.0378 10.1172 87.2452 12.5046 87.2452 16.002ZM78.2287 16.1205C78.2287 18.6255 79.6606 20.5163 81.68 20.5163C83.6528 20.5163 85.132 18.6491 85.132 16.0734C85.132 14.1348 84.1686 11.6769 81.7275 11.6769C79.2848 11.6769 78.2287 13.9458 78.2287 16.1205Z" fill="#2B2828"/>
<path d="M90.5113 10.3779L92.859 19.0813H92.929C93.1878 17.9224 95.7942 10.3779 95.7942 10.3779H97.5316L100.302 19.0813H100.372C100.56 17.9224 102.861 10.3779 102.861 10.3779H104.904L101.242 21.8165H99.3635C99.3635 21.8165 96.8982 14.9006 96.616 13.5535H96.5692C96.2871 14.9241 93.704 21.8165 93.704 21.8165H91.8255L88.3976 10.3779H90.5113Z" fill="#2B2828"/>
<path d="M10.5368 19.6427L15.3084 11.1133H5.76526L10.5368 19.6427Z" fill="#2B2828"/>
<path d="M19.7103 12.1601C17.3514 5.50719 14.3454 2.27295 10.5202 2.27295C5.63557 2.27295 3.12747 7.32277 1.31761 12.2623C0.0351517 15.7635 0.272031 19.3018 1.95169 21.7274C3.11406 23.4054 5.54416 25.4061 10.5202 25.4061C15.542 25.4061 17.9809 23.4287 19.1423 21.7701C20.8441 19.3399 21.0459 15.9271 19.7103 12.1601ZM16.9182 20.0164C15.7469 21.6894 13.5349 22.5735 10.5223 22.5735C7.54601 22.5735 5.35283 21.6784 4.18026 19.9853C2.98137 18.2542 2.84238 15.6458 3.80873 13.0089C5.83786 7.46937 7.8457 5.10546 10.5223 5.10546C13.1321 5.10546 15.385 7.72813 17.2187 12.8995C18.2339 15.7626 18.1271 18.2903 16.9182 20.0164Z" fill="#2B2828"/>
<path d="M69.5036 10.3779H71.2996V12.0363H71.3931C71.8945 10.7139 73.4325 10.1174 74.3702 10.1174C74.6256 10.1205 74.8796 10.1555 75.1264 10.2215V12.172C74.8946 12.1209 74.6589 12.0897 74.4218 12.0788C72.9658 12.0788 71.9331 13.1897 71.6517 14.7502C71.5933 15.0699 71.5617 15.394 71.5574 15.7191V21.8165H69.5145L69.5036 10.3779Z" fill="#2B2828"/>
<path d="M111.479 4.82932C111.379 4.71998 111.253 4.63863 111.112 4.59322C110.899 4.52648 110.676 4.49596 110.453 4.50293H109.937V7.10192H110.453C110.677 7.10899 110.9 7.07755 111.113 7.00895C111.255 6.96177 111.382 6.87761 111.482 6.76499C111.575 6.65079 111.639 6.5155 111.669 6.37073C111.711 6.17735 111.731 5.97985 111.729 5.78195C111.731 5.59034 111.711 5.39915 111.669 5.2123C111.637 5.07109 111.572 4.93968 111.479 4.82932Z" fill="#2B2828"/>
<path d="M109.225 0.496094C108.182 0.49608 107.163 0.807406 106.295 1.3907C105.428 1.97399 104.752 2.80306 104.353 3.77306C103.954 4.74306 103.849 5.81042 104.053 6.84017C104.256 7.86992 104.759 8.81581 105.496 9.55822C106.234 10.3006 107.173 10.8062 108.196 11.0111C109.22 11.2159 110.28 11.1108 111.244 10.709C112.207 10.3072 113.031 9.62677 113.611 8.75379C114.19 7.8808 114.499 6.85446 114.499 5.80454C114.499 4.39665 113.944 3.04644 112.955 2.05091C111.966 1.05539 110.624 0.496103 109.225 0.496094ZM108.634 7.18423C108.56 7.35596 108.451 7.5099 108.314 7.63579C108.177 7.76066 108.017 7.85818 107.844 7.92321C107.662 7.99091 107.469 8.02503 107.275 8.02392C107.083 8.02618 106.893 7.99535 106.712 7.93279C106.546 7.87625 106.392 7.78901 106.257 7.67554C106.125 7.56225 106.018 7.42165 105.944 7.26324C105.867 7.09799 105.824 6.91915 105.816 6.73697L105.805 6.53378H106.715V6.72654C106.714 6.79711 106.726 6.86721 106.751 6.93326C106.773 6.99175 106.807 7.04475 106.852 7.08866C106.901 7.13562 106.959 7.1725 107.023 7.19724C107.183 7.25288 107.357 7.25196 107.516 7.19463C107.582 7.1676 107.642 7.12676 107.691 7.07481C107.743 7.02009 107.782 6.9553 107.807 6.88452C107.837 6.80076 107.852 6.71217 107.85 6.62311C107.857 6.54423 107.847 6.46472 107.821 6.38995C107.796 6.31517 107.754 6.24688 107.699 6.18967C107.554 6.07975 107.374 6.02779 107.193 6.04378H106.811V5.26851H107.116C107.499 5.26851 107.655 5.12868 107.655 4.78481C107.661 4.72769 107.654 4.67007 107.637 4.61534C107.62 4.56061 107.592 4.50988 107.556 4.4661C107.466 4.39144 107.351 4.35525 107.236 4.36539C106.938 4.36539 106.798 4.49997 106.765 4.81519L106.747 4.98786H105.842L105.866 4.77332C105.884 4.59425 105.935 4.42014 106.017 4.26013C106.092 4.11559 106.195 3.98771 106.32 3.88412C106.444 3.78305 106.585 3.70644 106.737 3.65834C107.07 3.55613 107.426 3.56067 107.757 3.67135C107.912 3.7253 108.055 3.80972 108.178 3.91971C108.297 4.02758 108.391 4.15997 108.455 4.30788C108.52 4.46183 108.553 4.62768 108.552 4.79503C108.553 4.9982 108.497 5.19759 108.392 5.37077C108.344 5.44767 108.286 5.51776 108.219 5.57918C108.224 5.58197 108.229 5.58518 108.233 5.58876C108.339 5.66129 108.433 5.75109 108.509 5.85447C108.587 5.95954 108.647 6.07691 108.687 6.20179C108.729 6.33286 108.75 6.46973 108.749 6.60736C108.751 6.80563 108.712 7.00209 108.634 7.18423ZM110.466 7.95711H109.046V3.6551H110.466C111.892 3.6551 112.645 4.39058 112.645 5.78177C112.645 7.20506 111.892 7.95711 110.466 7.95711Z" fill="#2B2828"/>
</g>
<defs>
<clipPath id="clip0_7_74490">
<rect width="114" height="26" fill="white" transform="translate(0.499878 0.496094)"/>
</clipPath>
</defs>
</svg>
