<svg width="103" height="31" viewBox="0 0 103 31" fill="none" xmlns="http://www.w3.org/2000/svg">
<path d="M37.1169 20.7461V7.86133H41.4638C42.445 7.86133 43.1939 7.92285 43.7104 8.0459C44.4334 8.21582 45.0503 8.52344 45.561 8.96875C46.2266 9.54297 46.723 10.2783 47.0501 11.1748C47.3829 12.0654 47.5493 13.085 47.5493 14.2334C47.5493 15.2119 47.4374 16.0791 47.2136 16.835C46.9898 17.5908 46.7029 18.2178 46.3529 18.7158C46.0028 19.208 45.6184 19.5977 45.1995 19.8848C44.7863 20.166 44.2842 20.3799 43.6931 20.5264C43.1078 20.6729 42.4336 20.7461 41.6704 20.7461H37.1169ZM38.7868 19.2256H41.481C42.3131 19.2256 42.9644 19.1465 43.4349 18.9883C43.9112 18.8301 44.2899 18.6074 44.5711 18.3203C44.9671 17.916 45.2741 17.374 45.4921 16.6943C45.7159 16.0088 45.8278 15.1797 45.8278 14.207C45.8278 12.8594 45.6098 11.8252 45.1736 11.1045C44.7433 10.3779 44.2182 9.8916 43.5985 9.64551C43.1509 9.46973 42.4307 9.38184 41.438 9.38184H38.7868V19.2256Z" fill="#4510F6"/>
<path d="M58.6876 7.86133H60.3574V15.3057C60.3574 16.6006 60.214 17.6289 59.927 18.3906C59.6401 19.1523 59.1208 19.7734 58.3691 20.2539C57.6231 20.7285 56.6418 20.9658 55.4253 20.9658C54.2432 20.9658 53.2763 20.7578 52.5245 20.3418C51.7728 19.9258 51.2363 19.3252 50.9149 18.54C50.5936 17.749 50.4329 16.6709 50.4329 15.3057V7.86133H52.1028V15.2969C52.1028 16.416 52.2032 17.2422 52.404 17.7754C52.6106 18.3027 52.9606 18.71 53.4541 18.9971C53.9534 19.2842 54.5617 19.4277 55.2789 19.4277C56.507 19.4277 57.3821 19.1436 57.9043 18.5752C58.4265 18.0068 58.6876 16.9141 58.6876 15.2969V7.86133Z" fill="#4510F6"/>
<path d="M73.2602 19.3662C74.0349 19.9111 74.7493 20.3096 75.4035 20.5615L74.9129 21.748C74.0062 21.4141 73.1024 20.8867 72.2015 20.166C71.2661 20.6992 70.2332 20.9658 69.1027 20.9658C67.9608 20.9658 66.925 20.6846 65.9954 20.1221C65.0658 19.5596 64.3485 18.7686 63.8435 17.749C63.3443 16.7295 63.0946 15.5811 63.0946 14.3037C63.0946 13.0322 63.3471 11.875 63.8521 10.832C64.3571 9.78906 65.0744 8.99512 66.004 8.4502C66.9394 7.90527 67.9837 7.63281 69.1372 7.63281C70.3021 7.63281 71.3522 7.91699 72.2875 8.48535C73.2229 9.04785 73.9345 9.83887 74.4222 10.8584C74.9157 11.8721 75.1625 13.0176 75.1625 14.2949C75.1625 15.3555 75.0047 16.3105 74.6891 17.1602C74.3734 18.0039 73.8972 18.7393 73.2602 19.3662ZM69.5848 17.1865C70.5488 17.4619 71.3436 17.8721 71.9691 18.417C72.9503 17.5029 73.441 16.1289 73.441 14.2949C73.441 13.252 73.2659 12.3408 72.9159 11.5615C72.5716 10.7822 72.0637 10.1787 71.3923 9.75098C70.7267 9.31738 69.9778 9.10059 69.1458 9.10059C67.9005 9.10059 66.8676 9.53711 66.047 10.4102C65.2264 11.2773 64.8162 12.5752 64.8162 14.3037C64.8162 15.9795 65.2207 17.2656 66.0298 18.1621C66.8447 19.0586 67.8833 19.5068 69.1458 19.5068C69.7426 19.5068 70.3049 19.3926 70.8329 19.1641C70.3107 18.8184 69.7598 18.5723 69.1802 18.4258L69.5848 17.1865Z" fill="#4510F6"/>
<path d="M87.5316 19.3662C88.3063 19.9111 89.0207 20.3096 89.6749 20.5615L89.1842 21.748C88.2776 21.4141 87.3738 20.8867 86.4728 20.166C85.5375 20.6992 84.5046 20.9658 83.3741 20.9658C82.2322 20.9658 81.1964 20.6846 80.2668 20.1221C79.3372 19.5596 78.6199 18.7686 78.1149 17.749C77.6156 16.7295 77.366 15.5811 77.366 14.3037C77.366 13.0322 77.6185 11.875 78.1235 10.832C78.6285 9.78906 79.3458 8.99512 80.2754 8.4502C81.2107 7.90527 82.2551 7.63281 83.4085 7.63281C84.5734 7.63281 85.6236 7.91699 86.5589 8.48535C87.4943 9.04785 88.2058 9.83887 88.6936 10.8584C89.1871 11.8721 89.4338 13.0176 89.4338 14.2949C89.4338 15.3555 89.276 16.3105 88.9604 17.1602C88.6448 18.0039 88.1685 18.7393 87.5316 19.3662ZM83.8561 17.1865C84.8202 17.4619 85.615 17.8721 86.2404 18.417C87.2217 17.5029 87.7123 16.1289 87.7123 14.2949C87.7123 13.252 87.5373 12.3408 87.1873 11.5615C86.843 10.7822 86.3351 10.1787 85.6637 9.75098C84.9981 9.31738 84.2492 9.10059 83.4171 9.10059C82.1719 9.10059 81.139 9.53711 80.3184 10.4102C79.4978 11.2773 79.0875 12.5752 79.0875 14.3037C79.0875 15.9795 79.4921 17.2656 80.3012 18.1621C81.1161 19.0586 82.1547 19.5068 83.4171 19.5068C84.0139 19.5068 84.5763 19.3926 85.1042 19.1641C84.582 18.8184 84.0312 18.5723 83.4516 18.4258L83.8561 17.1865Z" fill="#4510F6"/>
<path d="M95.7949 20.7461V15.2881L90.9316 7.86133H92.963L95.4506 11.7461C95.9096 12.4727 96.3371 13.1992 96.7331 13.9258C97.1118 13.252 97.5709 12.4932 98.1103 11.6494L100.555 7.86133H102.5L97.4647 15.2881V20.7461H95.7949Z" fill="#4510F6"/>
<path d="M29.9598 17.2359C29.9519 17.2359 29.9361 17.2359 29.9281 17.2359L28.669 9.28605C28.8907 9.20679 29.0333 9.00072 29.0333 8.76294C29.0333 8.45382 28.7798 8.20812 28.4789 8.20812C28.3522 8.20812 28.2255 8.25567 28.1225 8.33493L22.5394 2.74708C22.6028 2.65197 22.6423 2.54101 22.6423 2.43004C22.6423 2.12093 22.3889 1.87522 22.088 1.87522C21.8346 1.87522 21.6208 2.04167 21.5495 2.28738L13.5905 1.02714C13.5747 0.733874 13.3292 0.496094 13.0362 0.496094C12.7273 0.496094 12.4818 0.749727 12.4818 1.05092C12.4818 1.1381 12.5056 1.22529 12.5452 1.30455L5.52866 4.87919C5.42571 4.76029 5.27524 4.69689 5.11685 4.69689C4.808 4.69689 4.5625 4.95052 4.5625 5.25171C4.5625 5.44193 4.65753 5.60838 4.808 5.71142L1.26805 12.6625C1.19678 12.6308 1.12551 12.6229 1.05423 12.6229C0.745377 12.6229 0.499878 12.8765 0.499878 13.1777C0.499878 13.4868 0.753297 13.7326 1.05423 13.7326C1.07007 13.7326 1.07799 13.7326 1.08591 13.7326L2.28965 21.3336C2.02831 21.3812 1.83825 21.611 1.83825 21.8805C1.83825 22.1896 2.09167 22.4353 2.3926 22.4353C2.47971 22.4353 2.55891 22.4115 2.6381 22.3719L8.38754 28.1262C8.3321 28.2134 8.30043 28.3164 8.30043 28.4274C8.30043 28.7365 8.55385 28.9822 8.85478 28.9822C9.07652 28.9822 9.27451 28.8554 9.36162 28.6573L17.3206 29.9175C17.3206 29.9254 17.3206 29.9333 17.3206 29.9413C17.3206 30.2504 17.574 30.4961 17.8749 30.4961C18.1838 30.4961 18.4293 30.2425 18.4293 29.9413C18.4293 29.862 18.4055 29.7748 18.3738 29.6956L25.5091 26.0575C25.6121 26.1764 25.7626 26.2398 25.921 26.2398C26.2298 26.2398 26.4753 25.9862 26.4753 25.685C26.4753 25.4948 26.3724 25.3204 26.214 25.2174L29.7302 18.3059C29.8014 18.3376 29.8727 18.3534 29.944 18.3534C30.2528 18.3534 30.4983 18.0998 30.4983 17.7986C30.5221 17.4816 30.2687 17.2359 29.9598 17.2359ZM25.3824 25.7801L23.3393 26.0972C23.3234 26.0417 23.2917 25.9862 23.2601 25.9307L25.3983 23.9571C25.4854 24.0364 25.5963 24.076 25.7151 24.076L25.8259 25.1381C25.5646 25.1857 25.3745 25.4155 25.3745 25.685C25.3745 25.7167 25.3745 25.7405 25.3824 25.7801ZM15.6258 29.0377C15.6496 29.0139 15.6733 28.9822 15.6892 28.9505L16.7979 29.4816L15.6258 29.0377ZM1.47396 13.5423L2.52723 14.3191V19.0588C2.4322 19.0826 2.353 19.1302 2.28173 19.1936C2.08375 19.3917 2.08375 19.7088 2.28173 19.9069C2.353 19.9783 2.44012 20.0258 2.54307 20.0417L2.41636 21.3098C2.40844 21.3098 2.40844 21.3098 2.40052 21.3098L1.19678 13.7088C1.29973 13.6929 1.40268 13.6295 1.47396 13.5423ZM5.66329 5.21208L6.89078 4.99015C6.90662 5.04563 6.9383 5.10111 6.96998 5.1566L5.20397 6.78143C5.11685 6.70217 5.00598 6.66254 4.88719 6.66254C4.61793 6.66254 4.40411 6.87654 4.40411 7.14603C4.40411 7.37588 4.57042 7.57403 4.80008 7.62159L4.73672 8.39834L2.96279 10.8396C2.76481 10.7048 2.49555 10.7286 2.32925 10.903C2.13126 11.1011 2.13126 11.4182 2.32133 11.6084L1.37101 12.7259C1.36309 12.718 1.35517 12.718 1.34725 12.7101L4.87927 5.77483C4.95055 5.80653 5.02182 5.82238 5.10101 5.82238C5.40987 5.82238 5.65537 5.56875 5.65537 5.26756C5.67121 5.24378 5.67121 5.22793 5.66329 5.21208ZM3.83392 14.9294C3.77848 14.9532 3.72305 14.9928 3.67553 15.0483L2.62226 14.2715V11.751C2.6777 11.759 2.73313 11.759 2.79649 11.7431L3.83392 14.9294ZM7.86486 4.75237L8.3717 4.58592C8.41922 4.72066 8.53009 4.8237 8.66472 4.87126L8.68847 4.93467L7.8807 4.85541C7.8807 4.81578 7.87278 4.78407 7.86486 4.75237ZM10.6445 5.12489L9.29826 4.50666C9.30618 4.47496 9.30618 4.44325 9.30618 4.41948L11.872 5.006C11.8087 5.06941 11.7691 5.14867 11.7533 5.23586L10.6445 5.12489ZM24.836 6.25831L24.2341 6.66254L23.1017 5.10111C23.1333 5.06148 23.165 5.02185 23.1809 4.9743L24.836 6.06809C24.8202 6.09979 24.8202 6.1315 24.8202 6.1632C24.8202 6.18698 24.8281 6.21868 24.836 6.25831ZM9.33786 22.3402L6.57401 22.364C6.55025 22.1183 6.34435 21.9281 6.09885 21.9281C6.08301 21.9281 6.05925 21.9281 6.04341 21.9281L5.86919 18.4565H5.87711C5.9563 18.4565 6.02758 18.4327 6.09885 18.3851L9.41705 21.9756C9.36162 22.047 9.32994 22.1262 9.32994 22.2213C9.32202 22.261 9.32994 22.3006 9.33786 22.3402ZM16.8612 3.34946L17.6215 3.20679L20.9397 4.28473L19.7518 5.12489C19.6805 5.06941 19.6013 5.03771 19.5142 5.03771C19.4904 5.03771 19.4746 5.0377 19.4509 5.04563C19.3558 4.92674 19.2212 4.85541 19.0707 4.85541C19.0074 4.85541 18.9519 4.87126 18.8886 4.88711L16.8296 3.53969C16.8533 3.4842 16.8692 3.42872 16.8692 3.37324C16.8612 3.36531 16.8612 3.35739 16.8612 3.34946ZM26.4674 8.77086L25.913 8.96901L25.5646 8.48553L26.3882 8.4459C26.3882 8.46175 26.3882 8.48553 26.3882 8.50138C26.3724 8.58856 26.404 8.68368 26.4674 8.77086ZM27.093 20.2715L21.0743 22.4829C21.0189 22.3798 20.9239 22.3085 20.8051 22.2847L21.011 18.0839C21.1377 18.076 21.2565 17.9968 21.3119 17.8858L27.093 20.0892C27.0851 20.1209 27.0772 20.1526 27.0772 20.1764C27.0851 20.2081 27.093 20.2398 27.093 20.2715ZM14.0261 7.02714L10.502 8.78672C10.4307 8.68368 10.3199 8.62027 10.1931 8.62027C10.1694 8.62027 10.1377 8.62027 10.114 8.62819L8.83102 5.04563L10.6366 5.22793L13.9865 6.76558C13.9786 6.78936 13.9786 6.81313 13.9786 6.83691C13.9786 6.90032 13.9944 6.96373 14.0261 7.02714ZM10.9217 5.25171L11.7374 5.33097C11.7374 5.48156 11.8087 5.62423 11.9275 5.71142L10.9217 5.25171ZM12.6798 5.1883L14.335 5.56875C14.335 5.57667 14.335 5.5846 14.335 5.59253C14.335 5.74312 14.4379 5.86994 14.5805 5.90957L14.4458 6.47232C14.4142 6.46439 14.3904 6.46439 14.3587 6.46439C14.2083 6.46439 14.0815 6.55158 14.0182 6.67839L12.1255 5.80653C12.1571 5.81446 12.1888 5.81446 12.2205 5.81446C12.4898 5.81446 12.7036 5.60045 12.7036 5.33097C12.7036 5.28341 12.6957 5.23586 12.6798 5.1883ZM27.1326 11.545L22.777 10.2927C22.777 10.2689 22.7849 10.253 22.7849 10.2372C22.7849 10.2134 22.7849 10.1896 22.777 10.1579L24.0282 9.72198C24.0995 9.76161 24.1787 9.78539 24.2579 9.78539C24.4559 9.78539 24.6222 9.6665 24.7014 9.49213L25.8734 9.07998L27.291 11.0377C27.2831 11.0456 27.2672 11.0536 27.2593 11.0615C27.1326 11.1883 27.0851 11.3706 27.1326 11.545ZM6.59777 15.8092C6.61361 15.8488 6.64529 15.8805 6.68488 15.9043L5.97214 17.7193C5.94046 17.7114 5.90879 17.7035 5.87711 17.7035C5.86127 17.7035 5.84543 17.7035 5.83751 17.7035L5.34651 15.6665L6.59777 15.8092ZM6.76408 10.4353L10.9138 13.5106C10.8821 13.5661 10.8663 13.6295 10.8663 13.6929C10.8663 13.7326 10.8742 13.7643 10.8821 13.8039L7.00957 15.5793C6.96998 15.5159 6.90662 15.4684 6.83535 15.4604L6.56609 10.5304C6.63737 10.5304 6.70864 10.4908 6.76408 10.4353ZM14.6676 5.91749C14.818 5.91749 14.9527 5.80653 14.9843 5.65594L17.8987 5.70349C17.8987 5.71142 17.8987 5.71934 17.9066 5.7352L14.723 6.74973C14.6993 6.64669 14.628 6.5595 14.5329 6.51195L14.6676 5.91749ZM11.0564 17.0773L8.78351 18.0681C8.71223 17.9571 8.59344 17.8858 8.45881 17.8858C8.40338 17.8858 8.34794 17.9016 8.29251 17.9254L6.94622 15.8805C6.96206 15.8647 6.9779 15.8488 6.99374 15.8329L11.0564 16.9188C11.0484 16.9505 11.0484 16.9743 11.0484 16.9981C11.0484 17.0298 11.0564 17.0536 11.0564 17.0773ZM7.04125 15.6744L10.9217 13.8911C10.9851 13.9941 11.096 14.0575 11.2147 14.0734L11.3573 16.6256C11.2385 16.6493 11.1355 16.7207 11.088 16.8237L7.03333 15.7378C7.03333 15.722 7.04125 15.7061 7.04125 15.6903C7.04125 15.6903 7.04125 15.6824 7.04125 15.6744ZM20.9634 8.69953L14.4142 10.681C14.3904 10.6335 14.3587 10.5938 14.3191 10.5621L18.0729 5.9809C18.2075 6.06809 18.3897 6.05224 18.5085 5.95712L21.0506 8.39834C20.9951 8.46967 20.9634 8.54893 20.9634 8.64405C20.9634 8.6599 20.9634 8.67575 20.9634 8.69953ZM11.579 13.8673L13.7806 14.6757L16.9325 15.8329C16.9246 15.8647 16.9167 15.8964 16.9087 15.936L11.777 16.8633C11.7216 16.7286 11.5949 16.6414 11.4523 16.6256L11.3098 14.0654C11.4206 14.0417 11.5236 13.9703 11.579 13.8673ZM19.0074 13.36L17.4314 15.6269C17.3839 15.6031 17.3364 15.5952 17.281 15.5952C17.2334 15.5952 17.1859 15.6031 17.1384 15.6189L14.2716 11.1724C14.3191 11.1407 14.3508 11.109 14.3825 11.0615L18.8569 12.9558L18.8886 12.9717C18.8807 13.0034 18.8727 13.043 18.8727 13.0747C18.8807 13.1857 18.9282 13.2887 19.0074 13.36ZM14.1924 11.2121L17.0671 15.6665C17.0355 15.6903 17.0038 15.722 16.98 15.7616L11.6107 13.7801C11.6186 13.7484 11.6186 13.7246 11.6186 13.6929C11.6186 13.6057 11.587 13.5265 11.5394 13.4551L13.8202 11.117C13.9152 11.22 14.0578 11.2596 14.1924 11.2121ZM20.6704 17.5053L19.9894 17.1804L17.6532 16.047C17.6611 16.0152 17.6611 15.9915 17.6611 15.9677C17.6611 15.8488 17.6056 15.7378 17.5106 15.6665L19.0786 13.4076C19.1499 13.4472 19.2291 13.4631 19.3083 13.4472L20.7813 17.3865C20.7417 17.4261 20.7021 17.4578 20.6704 17.5053ZM14.2399 10.5067C14.1924 10.4829 14.1528 10.475 14.1053 10.475L14.4142 7.20944C14.5963 7.18566 14.7388 7.02714 14.7388 6.83691L17.9383 5.82238C17.9541 5.86201 17.9779 5.89372 18.0095 5.92542L14.2399 10.5067ZM17.1226 16.3085C17.178 16.3323 17.2255 16.3481 17.2889 16.3481C17.4314 16.3481 17.5661 16.2689 17.6294 16.1341L20.6388 17.5925C20.6229 17.6322 20.615 17.6718 20.615 17.7114C20.615 17.759 20.6229 17.8065 20.6467 17.8541L17.5344 19.6374L14.3825 21.4446C14.3587 21.4129 14.335 21.3891 14.3033 21.3653L17.1226 16.3085ZM20.9872 17.331C20.9555 17.331 20.9318 17.331 20.9001 17.3389L19.435 13.4076C19.5142 13.36 19.5776 13.2887 19.6172 13.2015L24.44 14.224C24.44 14.2319 24.44 14.2398 24.44 14.2477C24.44 14.3191 24.4638 14.3825 24.4955 14.4459L21.2169 17.4102C21.1456 17.3627 21.0664 17.331 20.9872 17.331ZM19.3796 12.718C19.2054 12.6625 19.0232 12.7339 18.9361 12.8845L14.4379 10.9743C14.4538 10.9347 14.4617 10.8871 14.4617 10.8475C14.4617 10.8158 14.4538 10.792 14.4538 10.7682L21.003 8.78672C21.0347 8.85805 21.0902 8.92146 21.1535 8.96109L19.3796 12.718ZM10.5099 9.20679L13.7173 10.7603C13.7093 10.792 13.7014 10.8237 13.7014 10.8554C13.7014 10.9267 13.7173 10.9902 13.7569 11.0536L11.4682 13.3997C11.4048 13.3521 11.3256 13.3204 11.2385 13.3204C11.2227 13.3204 11.2147 13.3204 11.2068 13.3204L10.3199 9.35739C10.3991 9.32568 10.4624 9.2702 10.5099 9.20679ZM6.05925 17.751L6.77199 15.936C6.81159 15.9439 6.84327 15.936 6.87495 15.9281L8.15788 17.8779L8.22123 17.9809C8.15788 18.0364 8.11036 18.1077 8.09452 18.1949L6.24932 18.0602C6.24932 17.9333 6.17012 17.8145 6.05925 17.751ZM11.8008 16.9981C11.8008 16.9822 11.8008 16.9664 11.8008 16.9505L16.9167 16.0311C16.9325 16.1183 16.98 16.1975 17.0434 16.253L14.2241 21.3178C14.1291 21.2781 14.034 21.2781 13.939 21.3178L11.6661 17.2913C11.7533 17.22 11.8008 17.117 11.8008 16.9981ZM24.4559 14.1289L19.633 13.1064C19.633 13.0985 19.633 13.0826 19.633 13.0747C19.633 12.9954 19.6092 12.9241 19.5617 12.8607L22.1514 10.5225C22.2622 10.6176 22.4127 10.6414 22.5473 10.578L24.5667 13.9545C24.5192 14.002 24.4796 14.0575 24.4559 14.1289ZM14.3112 7.20944L14.0024 10.4829C13.8915 10.5067 13.8044 10.5701 13.7489 10.6731L10.5495 9.11961C10.5654 9.07998 10.5733 9.04035 10.5733 9.00072C10.5733 8.96109 10.5654 8.91353 10.5495 8.8739L14.0895 7.09847C14.1449 7.16188 14.2241 7.20151 14.3112 7.20944ZM4.46747 15.5793L5.24356 15.6665L5.74248 17.7352C5.72664 17.7431 5.71872 17.7431 5.70288 17.751L4.28532 15.7854C4.36452 15.7378 4.42787 15.6665 4.46747 15.5793ZM22.0246 10.2372C22.0246 10.3164 22.0484 10.3878 22.0959 10.4512L19.5063 12.7894C19.4905 12.7814 19.4746 12.7656 19.4588 12.7577L21.2327 9.00072C21.3357 9.03242 21.4386 9.01657 21.5257 8.96901L22.1672 9.94392C22.0801 10.0232 22.0246 10.1262 22.0246 10.2372ZM21.1218 8.33493L18.5718 5.88579C18.6193 5.82238 18.651 5.74312 18.651 5.66386C18.651 5.64801 18.651 5.63216 18.651 5.61631L18.6668 5.60838C18.754 5.7352 18.9044 5.81446 19.0628 5.81446C19.1578 5.81446 19.245 5.79068 19.3241 5.74312C19.435 5.80653 19.5696 5.81446 19.6805 5.75105L21.1377 8.32701C21.1298 8.32701 21.1218 8.33493 21.1218 8.33493ZM18.5797 5.33097C18.5797 5.37852 18.5876 5.42608 18.6035 5.47364C18.5401 5.35475 18.4134 5.28341 18.2788 5.28341C18.2075 5.28341 18.1442 5.29926 18.0887 5.33889L16.7583 3.64272C16.7662 3.6348 16.7741 3.62687 16.7741 3.61895L18.7936 4.93467C18.6589 5.02978 18.5797 5.17245 18.5797 5.33097ZM16.6791 3.69821L18.0095 5.39438C17.9541 5.44986 17.9145 5.52912 17.9066 5.60838L15.0002 5.56082C14.9923 5.49741 14.9764 5.44193 14.9368 5.39438L16.299 3.70613C16.4019 3.76954 16.5603 3.76954 16.6791 3.69821ZM4.85551 12.2108C4.85551 12.1236 4.82384 12.0364 4.7684 11.973L6.26516 10.475C6.32851 10.5225 6.39187 10.5463 6.47106 10.5542L6.74032 15.4842C6.72448 15.4921 6.70864 15.4921 6.70072 15.5001L4.71297 12.504C4.80008 12.4327 4.85551 12.3296 4.85551 12.2108ZM6.57401 15.7061L5.32276 15.5714L4.59418 12.5674C4.61001 12.5595 4.61793 12.5595 4.63377 12.5516L6.62945 15.5476C6.58985 15.5952 6.57401 15.6507 6.57401 15.7061ZM4.49914 15.4842C4.50706 15.4446 4.51498 15.4049 4.51498 15.3732C4.51498 15.1513 4.36452 14.9611 4.15069 14.9056L4.48331 12.5912C4.49122 12.5912 4.49122 12.5912 4.49914 12.5912L5.2198 15.5635L4.49914 15.4842ZM6.2414 18.1553L8.0866 18.29C8.09452 18.4882 8.26083 18.6467 8.46673 18.6467C8.49049 18.6467 8.50633 18.6467 8.53009 18.6388L9.54376 21.8805C9.52 21.8884 9.50417 21.9043 9.48041 21.9201L6.1622 18.3296C6.2018 18.2742 6.23348 18.2187 6.2414 18.1553ZM8.84686 18.2662C8.84686 18.2345 8.83894 18.1949 8.83102 18.1632L11.096 17.1724C11.1355 17.2438 11.191 17.3072 11.2623 17.3389L9.78134 21.8567C9.75758 21.8488 9.73383 21.8488 9.71007 21.8488C9.68631 21.8488 9.67047 21.8488 9.64672 21.8567L8.63304 18.615C8.75975 18.5516 8.84686 18.4168 8.84686 18.2662ZM11.3494 17.3706C11.3811 17.3785 11.4048 17.3785 11.4286 17.3785C11.484 17.3785 11.5315 17.3627 11.587 17.3389L13.8598 21.3574C13.7648 21.4287 13.7093 21.5397 13.7093 21.6586L10.0744 22.1183C10.0506 22.0073 9.97141 21.9201 9.86846 21.8726L11.3494 17.3706ZM14.4538 21.6744V21.6665C14.4538 21.6189 14.4458 21.5714 14.4221 21.5238L20.6784 17.9413C20.7338 18.0205 20.8209 18.0681 20.9159 18.0839L20.71 22.2847C20.5516 22.2927 20.417 22.4036 20.3774 22.5621L14.4538 21.6744ZM24.7251 9.37324C24.7331 9.34946 24.7331 9.31776 24.7331 9.29398C24.7331 9.0245 24.5192 8.81049 24.25 8.81049C23.9807 8.81049 23.7669 9.0245 23.7669 9.29398C23.7669 9.42872 23.8223 9.55554 23.9253 9.65065L22.7374 10.0628C22.674 9.93599 22.5473 9.85673 22.3968 9.85673C22.3414 9.85673 22.286 9.87258 22.2305 9.89636L21.5891 8.91353C21.6603 8.8422 21.6999 8.75501 21.7079 8.6599L25.43 8.48553L25.8022 9.00072L24.7251 9.37324ZM14.8576 5.32304C14.8022 5.27549 14.7309 5.25963 14.6597 5.25963C14.5171 5.25963 14.3983 5.34682 14.3508 5.48156L12.8145 5.13282L16.2039 3.62687L16.2118 3.6348L14.8576 5.32304ZM10.1931 9.38117C10.209 9.38117 10.2169 9.38117 10.2327 9.38117L11.1197 13.3442C11.0643 13.368 11.0168 13.3997 10.9772 13.4393L6.82743 10.364C6.85911 10.3085 6.87495 10.2451 6.87495 10.1817C6.87495 10.1579 6.87495 10.1341 6.86703 10.1104L9.85262 9.15924C9.90805 9.28605 10.0427 9.38117 10.1931 9.38117ZM15.9267 24.9954C15.8872 24.9954 15.8396 25.0034 15.8 25.0192L14.2874 21.9835C14.3666 21.936 14.4221 21.8567 14.4458 21.7695L20.3695 22.6493V22.6573C20.3695 22.7048 20.3774 22.7524 20.4012 22.7999L16.2435 25.154C16.1643 25.0509 16.0455 24.9954 15.9267 24.9954ZM24.6618 13.9069L22.6423 10.5304C22.6899 10.4908 22.7295 10.4433 22.7532 10.3798L27.1801 11.6559C27.2039 11.7035 27.2356 11.7431 27.2672 11.7748C27.3068 11.8145 27.3623 11.8462 27.4177 11.8779C27.4256 11.9175 27.4415 11.9571 27.4652 11.9888L25.0815 13.9783C25.0102 13.9149 24.9231 13.8752 24.8281 13.8752C24.7568 13.8752 24.7093 13.8831 24.6618 13.9069ZM21.7079 8.56479C21.6999 8.53308 21.692 8.50138 21.6762 8.46967L24.2104 6.78936L25.3745 8.39041L21.7079 8.56479ZM16.8454 3.25435C16.7979 3.09583 16.6553 2.99279 16.489 2.99279C16.3544 2.99279 16.2277 3.06413 16.1643 3.18302L15.4357 2.64405C15.4595 2.59649 15.4833 2.55686 15.4912 2.5093L17.4314 3.14339L16.8454 3.25435ZM9.82094 9.06413L6.83535 10.0152C6.77199 9.88051 6.64528 9.79332 6.49482 9.79332C6.4473 9.79332 6.39187 9.80125 6.34435 9.82502L5.21188 7.91485L5.64745 7.31247L9.82886 8.90561C9.82094 8.93731 9.81302 8.96901 9.81302 8.99279C9.81302 9.0245 9.82094 9.04035 9.82094 9.06413ZM6.15429 10.0073L6.13845 10.047C6.12261 10.0866 6.11469 10.1341 6.11469 10.1738C6.11469 10.253 6.14637 10.3402 6.19388 10.4036L4.69713 11.9096C4.65753 11.8779 4.61793 11.862 4.57042 11.8462L4.83968 8.43004L5.15645 7.99411L6.26516 9.87258C6.21764 9.91221 6.17804 9.95184 6.15429 10.0073ZM4.47539 11.8303C4.40411 11.8303 4.33284 11.8541 4.26948 11.8937L4.23781 11.9254C4.21405 11.9413 4.19821 11.9651 4.17445 11.9968L3.16078 11.4499C3.23997 11.2596 3.20037 11.0456 3.05782 10.895L4.73672 8.58064L4.47539 11.8303ZM3.01031 19.2094L5.53658 18.2583C5.58409 18.3534 5.67121 18.4168 5.76624 18.4485L5.9563 21.9518C5.7504 22.0152 5.61577 22.1975 5.61577 22.4115C5.61577 22.5938 5.7108 22.7524 5.86919 22.8396L5.66329 23.5846C5.62369 23.5767 5.59201 23.5687 5.56034 23.5687C5.5445 23.5687 5.52074 23.5688 5.5049 23.5767L2.89944 19.9862C2.93903 19.9624 2.96279 19.9386 2.99447 19.9149C3.19245 19.7246 3.19245 19.4076 3.01031 19.2094ZM14.0499 22.047C14.1053 22.0549 14.1528 22.047 14.2083 22.0311L15.7208 25.0668C15.6179 25.1381 15.5545 25.2491 15.5545 25.3838C15.5545 25.4551 15.5783 25.5265 15.61 25.582L13.0441 27.6982C13.0045 27.6586 12.957 27.6348 12.9095 27.6189L14.0499 22.047ZM21.1139 22.681C21.1139 22.6731 21.1139 22.6652 21.1139 22.6573C21.1139 22.6335 21.1139 22.6018 21.106 22.5701L27.0376 20.3904L24.8677 23.3864L23.2442 23.0853L21.1139 22.681ZM24.8043 23.4657L23.1175 25.796C23.0383 25.7484 22.9512 25.7246 22.8641 25.7246C22.7928 25.7246 22.7215 25.7405 22.6582 25.7722L21.0268 22.9109C21.0585 22.8713 21.0902 22.8237 21.106 22.7761L24.8043 23.4657ZM27.1326 20.01L21.3515 17.8065C21.3594 17.7748 21.3673 17.7431 21.3673 17.7193C21.3673 17.6401 21.3436 17.5687 21.2961 17.5053L24.5667 14.5489C24.6618 14.6361 24.7964 14.6599 24.9231 14.6203L27.0455 19.368L27.1643 19.6374C27.1801 19.7008 27.2039 19.7643 27.2514 19.8277L27.2672 19.8673C27.2118 19.899 27.1643 19.9466 27.1326 20.01ZM27.3702 10.9743L25.9685 9.04035L26.5387 8.8422C26.6258 8.91353 26.7287 8.96109 26.8396 8.96109C26.8634 8.96109 26.895 8.96109 26.9188 8.95316L27.489 10.9347C27.4494 10.9426 27.4098 10.9584 27.3702 10.9743ZM21.4624 8.27945C21.3832 8.25567 21.2961 8.25567 21.2169 8.27945L19.7518 5.69557C19.831 5.62423 19.8785 5.52119 19.8785 5.41023C19.8785 5.33097 19.8547 5.25171 19.8072 5.1883L21.0426 4.31644L22.2226 4.69689C22.2068 4.84748 22.2543 5.006 22.3652 5.11697C22.4048 5.1566 22.4602 5.19623 22.5156 5.22L21.4624 8.27945ZM7.87278 4.95052L8.72807 5.03771L10.0268 8.66782C9.95557 8.69953 9.90013 8.75501 9.86846 8.82635L5.7108 7.24114L7.12836 5.29134C7.32635 5.41023 7.57977 5.37852 7.73815 5.21208C7.80151 5.14074 7.84902 5.05356 7.87278 4.95052ZM4.85551 8.23982L4.90303 7.62952C4.91095 7.62952 4.92679 7.62952 4.93471 7.62952L5.10101 7.90693L4.85551 8.23982ZM5.02974 7.60574C5.21188 7.55025 5.33859 7.39966 5.36235 7.20944L5.55242 7.28077L5.15645 7.81974L5.02974 7.60574ZM3.10534 11.537L4.11902 12.0839C4.11902 12.0919 4.1111 12.0998 4.1111 12.1077L4.10318 12.1473V12.1553C4.10318 12.1711 4.09526 12.187 4.09526 12.2108C4.09526 12.2583 4.10318 12.3059 4.12694 12.3534L4.15069 12.3931C4.20613 12.4882 4.29324 12.5516 4.39619 12.5754L4.06358 14.8818C4.02398 14.8739 3.99231 14.8818 3.94479 14.8898L2.89152 11.7114C2.94695 11.6876 3.00239 11.648 3.04199 11.6084C3.06574 11.5925 3.0895 11.5608 3.10534 11.537ZM3.92895 15.8409C3.96855 15.8488 4.00023 15.8567 4.0319 15.8567C4.07942 15.8567 4.13485 15.8488 4.19029 15.8329L5.62369 17.8145C5.59201 17.8462 5.56034 17.8858 5.53658 17.9333L5.52074 17.973C5.5049 18.0126 5.49698 18.0522 5.49698 18.0919C5.49698 18.1236 5.49698 18.1473 5.51282 18.1791L2.93111 19.154C2.89944 19.1381 2.87568 19.1222 2.85192 19.1064L3.92895 15.8409ZM9.1082 26.5806L11.3098 27.4446L8.98149 26.6837C9.02901 26.6599 9.07652 26.6282 9.1082 26.5806ZM9.19531 26.3429C9.19531 26.1923 9.1082 26.0575 8.97357 25.9941L9.67047 22.5938C9.67839 22.5938 9.68631 22.5938 9.70215 22.5938C9.74967 22.5938 9.79718 22.5859 9.83678 22.5701L12.569 27.6586C12.5214 27.6903 12.4818 27.7378 12.4581 27.7854L9.16364 26.4935C9.18739 26.4538 9.19531 26.3983 9.19531 26.3429ZM10.0744 22.2213L13.7093 21.7616C13.741 21.8805 13.836 21.9835 13.9548 22.0232L12.8065 27.5952C12.7511 27.5872 12.6957 27.5952 12.6402 27.6189L9.90805 22.5304C10.0189 22.4591 10.0744 22.3481 10.0744 22.2213ZM23.7827 5.24378L23.2125 4.87126C23.2125 4.85541 23.2205 4.83956 23.2205 4.8237L23.7827 5.24378ZM21.6208 8.39041C21.597 8.36664 21.5732 8.34286 21.5495 8.32701L22.6107 5.25171C22.7611 5.28341 22.9116 5.25171 23.0304 5.16452L24.1549 6.71802L21.6208 8.39041ZM22.2464 4.60177L21.1456 4.2451L21.6683 3.87258C21.7395 3.92014 21.8346 3.92014 21.9058 3.88051L22.3652 4.41155C22.3018 4.46703 22.2701 4.53044 22.2464 4.60177ZM19.7676 3.23057C19.9419 3.23057 20.0923 3.14339 20.1794 2.99279L21.5574 3.61895C21.5495 3.6348 21.5495 3.65065 21.5495 3.6665C21.5495 3.71406 21.5653 3.76162 21.597 3.80125L21.0347 4.19755L17.8195 3.15131L19.3004 2.86597C19.3558 3.0879 19.5538 3.23057 19.7676 3.23057ZM8.79142 4.94259L8.77559 4.89504C8.79143 4.89504 8.80726 4.89504 8.8231 4.89504C9.02109 4.89504 9.19531 4.77615 9.26659 4.59385L10.3595 5.09319L8.79142 4.94259ZM5.60785 7.20151L5.37027 7.1064C5.36235 7.01128 5.33067 6.93202 5.27524 6.85276L7.03333 5.22793L5.60785 7.20151ZM14.7547 28.7048L14.034 28.4353L14.7547 28.6652C14.7547 28.681 14.7547 28.6969 14.7547 28.7048ZM15.6733 25.6454C15.7446 25.7088 15.8317 25.7484 15.9347 25.7484C16.101 25.7484 16.2435 25.6374 16.291 25.4789L22.3573 26.2477C22.3573 26.2715 22.3652 26.2953 22.3652 26.3191L19.237 27.3336L13.155 27.8805C13.1471 27.833 13.1312 27.7933 13.1075 27.7616L15.6733 25.6454ZM16.3069 25.3917C16.3069 25.3838 16.3069 25.3759 16.3069 25.3759C16.3069 25.3283 16.299 25.2808 16.2752 25.2332L20.4329 22.8792C20.5041 22.9743 20.615 23.0298 20.7338 23.0298C20.8051 23.0298 20.8763 23.006 20.9397 22.9664L22.5552 25.8118C22.5315 25.8277 22.5077 25.8514 22.484 25.8673C22.4048 25.9466 22.3573 26.0496 22.3414 26.1606L16.3069 25.3917ZM25.327 23.8779L23.1967 25.8435L24.9073 23.4816L25.232 23.545C25.232 23.5608 25.232 23.5767 25.232 23.5925C25.232 23.6956 25.2636 23.7986 25.327 23.8779ZM27.1722 19.4155L25.0102 14.5727C25.0657 14.541 25.1132 14.4935 25.1449 14.438L26.4516 14.969C26.4753 15.2068 26.6891 15.397 26.9267 15.397C27.0376 15.397 27.1405 15.3574 27.2276 15.2861L27.6157 15.4446V19.0271C27.4969 19.0351 27.386 19.0905 27.3068 19.1698C27.2356 19.2411 27.188 19.3204 27.1722 19.4155ZM27.4019 14.9135C27.4019 14.644 27.188 14.43 26.9188 14.43C26.6654 14.43 26.4674 14.6203 26.4436 14.866L25.1765 14.3508C25.1845 14.3191 25.1924 14.2874 25.1924 14.2557C25.1924 14.1843 25.1686 14.113 25.129 14.0496L27.5127 12.0602C27.5444 12.0839 27.5761 12.1077 27.6078 12.1236V15.3415L27.291 15.2147C27.3623 15.1275 27.4019 15.0245 27.4019 14.9135ZM26.3961 8.34286L25.4854 8.38249L24.2896 6.73387L24.8914 6.33757C24.939 6.39305 25.0102 6.41683 25.0815 6.41683C25.1211 6.41683 25.1607 6.40891 25.2003 6.38513L26.5228 8.14471C26.4674 8.20811 26.4278 8.27152 26.3961 8.34286ZM6.00382 24.2504C6.0355 24.187 6.05133 24.1156 6.05133 24.0522C6.05133 23.862 5.94046 23.6876 5.76624 23.6084L5.97214 22.8713C6.01966 22.8871 6.05925 22.895 6.10677 22.895C6.36019 22.895 6.56609 22.7048 6.58985 22.4512L9.3933 22.4274C9.44081 22.4987 9.50417 22.5542 9.59128 22.578L8.89438 25.9703C8.87062 25.9703 8.85478 25.9624 8.83102 25.9624C8.66472 25.9624 8.51425 26.0734 8.46673 26.2398L8.44297 26.2953C8.44297 26.3112 8.43505 26.327 8.43505 26.3508C8.43505 26.3825 8.44298 26.4142 8.45089 26.4538L8.46673 26.5014C8.47465 26.5093 8.47465 26.5252 8.48257 26.5331L7.9203 26.3508C7.94406 26.1923 7.88862 26.0337 7.77775 25.9228C7.61144 25.7563 7.35011 25.7246 7.15212 25.8514L6.00382 24.2504ZM27.7107 15.4842L28.0433 15.6189C28.0117 15.6824 27.9958 15.7537 27.9958 15.825C27.9958 16.0152 28.1067 16.1896 28.2809 16.261L27.7107 18.8448V15.4842ZM27.7107 15.3812V12.1473C27.7345 12.1553 27.7662 12.1553 27.7899 12.1553L28.3443 15.3653C28.2492 15.397 28.1621 15.4525 28.0988 15.5397L27.7107 15.3812ZM28.4314 15.3415L27.8849 12.1394C28.0433 12.0919 28.1542 11.9492 28.1542 11.7748C28.1542 11.751 28.1542 11.7273 28.1463 11.7035V11.6956L28.075 11.6322C28.17 11.4419 28.1304 11.2121 27.98 11.0536C27.9404 11.0139 27.8929 10.9822 27.8374 10.9505L28.368 9.29398C28.3918 9.30191 28.4155 9.30191 28.4393 9.30191V15.3415H28.4314ZM22.4285 4.35607L22.1197 3.99147L22.5315 4.30059C22.4919 4.30851 22.4602 4.33229 22.4285 4.35607ZM15.3566 2.74708C15.3645 2.73916 15.3724 2.73123 15.3724 2.73123L16.1168 3.28605C16.1089 3.31776 16.101 3.34946 16.101 3.38117C16.101 3.43665 16.1168 3.49213 16.1406 3.54761L12.6481 5.09319L12.6165 5.08526C12.5294 4.94259 12.3789 4.85541 12.2047 4.85541C12.1096 4.85541 12.0225 4.87918 11.9433 4.93467L9.28242 4.32436C9.28242 4.31644 9.2745 4.30851 9.2745 4.29266L14.5171 2.58856C14.5409 2.65197 14.5805 2.70745 14.628 2.75501C14.8418 2.94524 15.1586 2.94523 15.3566 2.74708ZM2.63018 14.3983L3.6201 15.1275C3.57258 15.1989 3.55674 15.2861 3.55674 15.3732C3.55674 15.5635 3.66761 15.7378 3.84184 15.8092L2.75689 19.0668C2.71729 19.0588 2.6777 19.0509 2.6381 19.0509H2.63018V14.3983ZM14.9052 28.3323C14.8418 28.3957 14.7943 28.4829 14.7705 28.5701L13.155 28.047C13.1629 28.0232 13.1629 28.0073 13.1629 27.9915L18.8331 27.4842L15.7288 28.4987C15.705 28.4353 15.6654 28.3878 15.6258 28.3402C15.5308 28.2451 15.4041 28.1896 15.2694 28.1896C15.1269 28.1817 15.0002 28.2372 14.9052 28.3323ZM19.6726 27.3019L22.3889 26.4221C22.3969 26.4538 22.4127 26.4776 22.4285 26.5014L21.9058 26.8898C21.8108 26.7867 21.6841 26.7312 21.5495 26.7312C21.2961 26.7312 21.0822 26.9294 21.0664 27.183L19.6726 27.3019ZM25.2478 23.4578L24.9706 23.4023L27.1485 20.3983C27.1722 20.438 27.2039 20.4697 27.2435 20.4935L25.8576 23.1328C25.8101 23.117 25.7626 23.109 25.7151 23.109C25.5012 23.109 25.3112 23.2517 25.2478 23.4578ZM27.4256 20.5569C27.4415 20.5569 27.4494 20.5569 27.4652 20.5569C27.5365 20.5569 27.6078 20.5331 27.679 20.4855L27.687 20.4776V20.4697C27.7345 20.3666 27.782 20.2477 27.8374 20.1051V20.0971V20.0892C27.8295 20.0575 27.8216 20.0337 27.8058 20.002C27.8929 19.9783 27.9641 19.9386 28.0275 19.8752C28.178 19.7246 28.2176 19.4948 28.1225 19.3045L29.5955 18.1949C29.6193 18.2187 29.643 18.2345 29.6668 18.2504L26.1506 25.1619C26.1506 25.1619 26.1427 25.1619 26.1427 25.154L27.4256 20.5569ZM29.4055 17.7907C29.4055 17.9096 29.4451 18.0285 29.5163 18.1236L28.0592 19.2253C28.0433 19.2015 28.0275 19.1857 28.0117 19.1698C27.9483 19.0985 27.8612 19.0588 27.7582 19.0351L28.368 16.2927C28.4076 16.3006 28.4393 16.3085 28.471 16.3085C28.5581 16.3085 28.6452 16.2847 28.7244 16.2372L29.5797 17.3706C29.4688 17.4816 29.4055 17.6322 29.4055 17.7907ZM27.7345 10.9267C27.6949 10.9188 27.6553 10.9109 27.6157 10.9109C27.6078 10.9109 27.5999 10.9109 27.584 10.9109L27.0059 8.92146C27.1801 8.85012 27.2989 8.68368 27.2989 8.49345C27.2989 8.23982 27.093 8.02582 26.8317 8.02582C26.7446 8.02582 26.6654 8.04959 26.5941 8.08922L25.3508 6.42476L28.0037 8.46175C27.9483 8.54893 27.9166 8.65197 27.9166 8.75501C27.9166 8.97694 28.0513 9.18302 28.2572 9.2702L27.7345 10.9267ZM27.9166 8.2636L25.3191 6.27416C25.3428 6.23453 25.3508 6.1949 25.3508 6.15527C25.3508 5.99675 25.2082 5.86994 25.0498 5.89372L22.4919 2.83427L27.9166 8.2636ZM24.8994 5.95712L23.2205 4.68896C23.2046 4.578 23.1571 4.47496 23.0779 4.3957C22.967 4.28473 22.8007 4.22925 22.6423 4.25303L21.993 3.76162C22.0088 3.72991 22.0167 3.69821 22.0167 3.6665C22.0167 3.57139 21.9613 3.48421 21.8742 3.4525L21.9613 2.96901C22.0009 2.97694 22.0405 2.98486 22.0801 2.98486C22.1909 2.98486 22.3018 2.95316 22.3968 2.88183L24.939 5.91749C24.931 5.93335 24.9152 5.9492 24.8994 5.95712ZM21.7791 3.43665C21.7237 3.43665 21.6762 3.46043 21.6287 3.49213L21.4465 3.35739L21.5891 3.53176L20.2111 2.9056C20.2269 2.85805 20.2349 2.80257 20.2349 2.75501C20.2349 2.72331 20.2349 2.6916 20.2269 2.6599L21.5257 2.53308C21.5574 2.71538 21.6841 2.8739 21.8583 2.94523L21.7791 3.43665ZM21.5257 2.43797L20.2111 2.56479C20.1319 2.38249 19.9656 2.27152 19.7676 2.27152C19.4984 2.27152 19.2845 2.48553 19.2845 2.75501C19.2845 2.77086 19.2845 2.77879 19.2845 2.78671L17.6294 3.10375L15.4991 2.40627C15.507 2.2636 15.4516 2.12885 15.3566 2.03374C15.1586 1.83559 14.8418 1.83559 14.6438 2.03374C14.6359 2.04167 14.628 2.04959 14.628 2.04959L13.5509 1.24907C13.5668 1.20151 13.5826 1.16188 13.5905 1.11432L21.5416 2.37456C21.5257 2.39834 21.5257 2.41419 21.5257 2.43797C21.5257 2.43004 21.5257 2.43004 21.5257 2.43797ZM14.5013 2.48553L9.25075 4.18962C9.17155 4.0311 9.00525 3.92806 8.8231 3.92806C8.55384 3.92806 8.34002 4.14206 8.34002 4.41155C8.34002 4.43533 8.34002 4.45911 8.34794 4.48288L7.8411 4.64933C7.81735 4.58592 7.77775 4.53837 7.73815 4.49081C7.64312 4.3957 7.51641 4.34022 7.38178 4.34022C7.24715 4.34022 7.12045 4.3957 7.02541 4.49081C6.92246 4.59385 6.86703 4.73652 6.88286 4.88711L5.65537 5.10904C5.63953 5.05356 5.62369 5.006 5.59201 4.95845L12.5927 1.38381C12.6957 1.51855 12.862 1.59781 13.0362 1.59781C13.2263 1.59781 13.4005 1.49477 13.5034 1.33625L14.5725 2.12093C14.5013 2.23982 14.4854 2.36664 14.5013 2.48553ZM2.40052 11.6639C2.44012 11.6876 2.47971 11.7114 2.52723 11.7273V14.1923L1.53731 13.4551C1.59275 13.368 1.61651 13.2649 1.61651 13.1698C1.61651 13.0192 1.56107 12.8845 1.45812 12.7814L2.40052 11.6639ZM2.6381 20.0575C2.70145 20.0575 2.75689 20.0496 2.81232 20.0258L5.40195 23.5925C5.30692 23.6242 5.2198 23.6876 5.16437 23.7748L2.8836 22.1341C2.93112 22.0549 2.95487 21.9598 2.95487 21.8647C2.95487 21.6031 2.77273 21.3732 2.51139 21.3178L2.6381 20.0575ZM2.83608 22.2213L5.12477 23.8699C5.10101 23.9254 5.08518 23.9888 5.08518 24.0522C5.08518 24.3217 5.299 24.5357 5.56825 24.5357C5.71872 24.5357 5.86127 24.4644 5.94838 24.3455L7.08085 25.9069C7.07293 25.9069 7.07293 25.9149 7.06501 25.9149C6.96998 26.01 6.91454 26.1368 6.91454 26.2715C6.91454 26.4063 6.96998 26.5331 7.06501 26.6282C7.2234 26.7788 7.46098 26.8184 7.65104 26.7154L8.49049 28.0152C8.48257 28.0232 8.47465 28.0311 8.46673 28.039L2.74105 22.3164C2.77273 22.2927 2.80441 22.261 2.83608 22.2213ZM7.78567 26.6282C7.8411 26.5727 7.8807 26.5093 7.90446 26.438L8.64888 26.6837C8.68847 26.6995 8.72015 26.7154 8.75975 26.7233L12.4185 27.9122C12.4106 27.936 12.4106 27.9518 12.4106 27.9756C12.4106 27.9835 12.4106 27.9915 12.4106 28.0073L9.42497 28.3798C9.39329 28.0945 9.15571 27.8805 8.87062 27.8805C8.76767 27.8805 8.6568 27.9122 8.56968 27.9756L7.73815 26.6837C7.75399 26.6599 7.76983 26.644 7.78567 26.6282ZM9.42497 28.467L12.4264 28.0945C12.4581 28.1896 12.5294 28.2689 12.6244 28.3085L12.6719 28.3164C12.7115 28.3244 12.7432 28.3323 12.7828 28.3402H12.7907C12.9095 28.3402 13.0283 28.2768 13.0995 28.1817L14.7864 28.8158C14.8101 28.903 14.8497 28.9822 14.9131 29.0377C15.0873 29.2121 15.3486 29.2359 15.5466 29.1011L17.3601 29.7828C17.3601 29.7907 17.3522 29.7986 17.3522 29.8065L9.41705 28.5463C9.41705 28.5304 9.42497 28.4987 9.42497 28.467ZM15.7525 28.578L19.2766 27.4287L21.0743 27.2702C21.0822 27.3336 21.106 27.397 21.1298 27.4446L18.263 29.5291C18.16 29.434 18.0254 29.3785 17.8828 29.3785C17.6848 29.3785 17.5027 29.4816 17.4077 29.6559L15.7288 28.8554C15.7684 28.7682 15.7684 28.6731 15.7525 28.578ZM21.1931 27.5318C21.2881 27.6348 21.4149 27.6903 21.5495 27.6903C21.8187 27.6903 22.0326 27.4763 22.0326 27.2068C22.0326 27.1196 22.0088 27.0403 21.9692 26.9611L22.4998 26.5727C22.4998 26.5727 22.4998 26.5727 22.5077 26.5806C22.6028 26.6758 22.7295 26.7312 22.8641 26.7312C22.9987 26.7312 23.1254 26.6758 23.2205 26.5806C23.3234 26.4776 23.3788 26.3349 23.363 26.1843L25.4141 25.8673C25.43 25.9069 25.4458 25.9386 25.4616 25.9703L18.3421 29.6084L21.1931 27.5318ZM26.1981 23.5925C26.1981 23.4182 26.1031 23.2517 25.9447 23.1724L27.3227 20.5569L26.0318 25.1381C26.0001 25.1302 25.9605 25.1302 25.9289 25.1302H25.921L25.8101 24.0681C26.0318 24.0205 26.1981 23.8224 26.1981 23.5925ZM28.962 15.825C28.962 15.6427 28.859 15.4763 28.6927 15.397L28.7086 15.3653V15.3415C28.7086 15.3257 28.7086 15.3178 28.7086 15.3019C28.7086 15.294 28.7086 15.2781 28.7086 15.2702V15.1751L28.5977 15.3653C28.5739 15.3574 28.5502 15.3574 28.5185 15.3495V9.31776C28.5343 9.31776 28.5502 9.31776 28.566 9.30983L29.8252 17.2517C29.7698 17.2676 29.7143 17.2913 29.6668 17.323L28.8036 16.1817C28.9065 16.0866 28.962 15.9598 28.962 15.825Z" fill="#4510F6"/>
</svg>
