<svg width="56" height="56" viewBox="0 0 56 56" fill="none" xmlns="http://www.w3.org/2000/svg">
<rect x="4" y="4" width="48" height="48" rx="24" fill="#E0F2FE"/>
<path d="M36.84 20.6101C36.3292 20.0991 35.7228 19.6938 35.0554 19.4172C34.3879 19.1406 33.6725 18.9983 32.95 18.9983C32.2275 18.9983 31.5121 19.1406 30.8446 19.4172C30.1772 19.6938 29.5708 20.0991 29.06 20.6101L28 21.6701L26.94 20.6101C25.9083 19.5784 24.509 18.9988 23.05 18.9988C21.591 18.9988 20.1917 19.5784 19.16 20.6101C18.1283 21.6418 17.5487 23.0411 17.5487 24.5001C17.5487 25.9591 18.1283 27.3584 19.16 28.3901L20.22 29.4501L28 37.2301L35.78 29.4501L36.84 28.3901C37.351 27.8794 37.7563 27.2729 38.0329 26.6055C38.3095 25.938 38.4518 25.2226 38.4518 24.5001C38.4518 23.7776 38.3095 23.0622 38.0329 22.3948C37.7563 21.7273 37.351 21.1209 36.84 20.6101V20.6101Z" stroke="#0BA5EC" stroke-width="2" stroke-linecap="round" stroke-linejoin="round"/>
<rect x="4" y="4" width="48" height="48" rx="24" stroke="#F0F9FF" stroke-width="8"/>
</svg>
