<svg width="24" height="25" viewBox="0 0 24 25" fill="none" xmlns="http://www.w3.org/2000/svg">
<path fill-rule="evenodd" clip-rule="evenodd" d="M12 0.496094C5.37527 0.496094 0 5.87137 0 12.4961C0 19.1208 5.37527 24.4961 12 24.4961C18.6117 24.4961 24 19.1208 24 12.4961C24 5.87137 18.6117 0.496094 12 0.496094ZM19.9262 6.02755C21.3579 7.77158 22.217 9.99717 22.243 12.405C21.9046 12.3399 18.5206 11.6501 15.1106 12.0796C15.0325 11.9104 14.9675 11.7282 14.8894 11.546C14.6811 11.0514 14.4469 10.5438 14.2126 10.0623C17.9869 8.52649 19.705 6.31388 19.9262 6.02755ZM12 2.26616C14.603 2.26616 16.9848 3.2423 18.7939 4.84317C18.6117 5.10347 17.0629 7.17289 13.4186 8.53947C11.7397 5.45488 9.87855 2.92993 9.5922 2.53948C10.3601 2.35726 11.1671 2.26616 12 2.26616ZM7.63995 3.22928C7.91325 3.59371 9.73538 6.13167 11.4404 9.15117C6.65076 10.4267 2.42083 10.4007 1.96529 10.4007C2.62907 7.22494 4.77657 4.58286 7.63995 3.22928ZM1.74404 12.5091C1.74404 12.405 1.74404 12.3009 1.74404 12.1968C2.18655 12.2097 7.15835 12.2748 12.2733 10.7391C12.5727 11.3117 12.846 11.8974 13.1063 12.483C12.9761 12.5221 12.8329 12.5612 12.7028 12.6002C7.41865 14.3052 4.60738 18.9646 4.3731 19.3551C2.7462 17.546 1.74404 15.1382 1.74404 12.5091ZM12 22.752C9.6312 22.752 7.44469 21.9451 5.71367 20.5915C5.89588 20.2141 7.97827 16.2054 13.757 14.1881C13.783 14.175 13.7961 14.175 13.8221 14.1621C15.2668 17.8974 15.8525 21.034 16.0087 21.9321C14.7722 22.4657 13.4186 22.752 12 22.752ZM17.7136 20.995C17.6096 20.3703 17.0629 17.3768 15.7223 13.6935C18.9371 13.1859 21.7484 14.0189 22.0998 14.136C21.6573 16.9863 20.0173 19.4462 17.7136 20.995Z" fill="#98A2B3"/>
</svg>
