<svg width="24" height="25" viewBox="0 0 24 25" fill="none" xmlns="http://www.w3.org/2000/svg">
<path d="M22.2234 0.496094H1.77187C0.792187 0.496094 0 1.26953 0 2.22578V22.7617C0 23.718 0.792187 24.4961 1.77187 24.4961H22.2234C23.2031 24.4961 24 23.718 24 22.7664V2.22578C24 1.26953 23.2031 0.496094 22.2234 0.496094ZM7.12031 20.9477H3.55781V9.49141H7.12031V20.9477ZM5.33906 7.93047C4.19531 7.93047 3.27188 7.00703 3.27188 5.86797C3.27188 4.72891 4.19531 3.80547 5.33906 3.80547C6.47813 3.80547 7.40156 4.72891 7.40156 5.86797C7.40156 7.00234 6.47813 7.93047 5.33906 7.93047ZM20.4516 20.9477H16.8937V15.3789C16.8937 14.0523 16.8703 12.3414 15.0422 12.3414C13.1906 12.3414 12.9094 13.7898 12.9094 15.2852V20.9477H9.35625V9.49141H12.7687V11.057H12.8156C13.2891 10.157 14.4516 9.20547 16.1813 9.20547C19.7859 9.20547 20.4516 11.5773 20.4516 14.6617V20.9477Z" fill="#98A2B3"/>
</svg>
