<svg width="18" height="21" viewBox="0 0 18 21" fill="none" xmlns="http://www.w3.org/2000/svg">
<path d="M16.5 8.82935C16.5 14.6627 9 19.6627 9 19.6627C9 19.6627 1.5 14.6627 1.5 8.82935C1.5 6.84022 2.29018 4.93257 3.6967 3.52604C5.10322 2.11952 7.01088 1.32935 9 1.32935C10.9891 1.32935 12.8968 2.11952 14.3033 3.52604C15.7098 4.93257 16.5 6.84022 16.5 8.82935Z" stroke="#98A2B3" stroke-width="1.66667" stroke-linecap="round" stroke-linejoin="round"/>
<path d="M9 11.3293C10.3807 11.3293 11.5 10.2101 11.5 8.82935C11.5 7.44863 10.3807 6.32935 9 6.32935C7.61929 6.32935 6.5 7.44863 6.5 8.82935C6.5 10.2101 7.61929 11.3293 9 11.3293Z" stroke="#98A2B3" stroke-width="1.66667" stroke-linecap="round" stroke-linejoin="round"/>
</svg>
