<svg width="159" height="90" viewBox="0 0 159 90" fill="none" xmlns="http://www.w3.org/2000/svg">
<g filter="url(#filter0_d_7_74510)">
<path d="M4.49986 9.07403L12.0655 4.37173L4.49986 0L4.49986 9.07403Z" fill="#2B2B2B"/>
<path d="M20.6936 9.35741L13.9238 13.2693L7.62503 9.35436L13.9187 5.4426L20.6936 9.35741Z" fill="#2B2B2B"/>
<path d="M4.49986 9.63467L12.0706 14.3401L4.49986 18.7148V9.63467Z" fill="#2B2B2B"/>
<path d="M6.28223 68.7509V81.4962H4.49986V64.1416H4.94288L12.0089 73.1857L19.0749 64.1416H19.521V81.4962H17.7386V68.747L12.0089 76.0807L6.28223 68.7509Z" fill="#2B2B2B"/>
<path d="M54.7109 64.1416H42.035V81.4962H54.7109V79.7138H43.8174V73.7101H51.8966V71.9277H43.8174V65.924H54.7109V64.1416Z" fill="#2B2B2B"/>
<path fill-rule="evenodd" clip-rule="evenodd" d="M77.225 64.1416H83.5688C88.3611 64.1416 92.2461 68.0266 92.2461 72.8189C92.2461 77.6113 88.3611 81.4962 83.5688 81.4962H77.225V64.1416ZM83.5688 65.924H79.0073V79.7138H83.5688C87.3767 79.7138 90.4637 76.6269 90.4637 72.8189C90.4637 69.0109 87.3767 65.924 83.5688 65.924Z" fill="#2B2B2B"/>
<path d="M116.542 64.1416H114.76V81.4962H116.542V64.1416Z" fill="#2B2B2B"/>
<path fill-rule="evenodd" clip-rule="evenodd" d="M143.225 75.938L140.979 81.4962H139.057L146.068 64.1416H146.551L153.563 81.4962H151.641L149.395 75.938H143.225ZM148.675 74.1557L146.31 68.3016L143.945 74.1557H148.675Z" fill="#2B2B2B"/>
<path d="M4.49986 32.7509H6.28223V50.1055H4.49986V32.7509Z" fill="#2B2B2B"/>
<path d="M19.521 32.7509H17.0585L7.22031 41.4282L17.0585 50.1055H19.521L9.68279 41.4282L19.521 32.7509Z" fill="#2B2B2B"/>
<path d="M38.2797 32.7509H50.9556V34.5333H40.0621V40.537H48.1414V42.3194H40.0621V48.3231H50.9556V50.1055H38.2797V32.7509Z" fill="#2B2B2B"/>
<path fill-rule="evenodd" clip-rule="evenodd" d="M77.1664 32.7509H70.8226V50.1055H77.1664C81.9587 50.1055 85.8437 46.2206 85.8437 41.4282C85.8437 36.6359 81.9587 32.7509 77.1664 32.7509ZM72.6049 34.5333H77.1664C80.9743 34.5333 84.0613 37.6202 84.0613 41.4282C84.0613 45.2362 80.9743 48.3231 77.1664 48.3231H72.6049V34.5333Z" fill="#2B2B2B"/>
<path fill-rule="evenodd" clip-rule="evenodd" d="M145.823 50.1055C150.615 50.1055 154.5 46.2205 154.5 41.4282C154.5 36.6359 150.615 32.7509 145.823 32.7509C141.03 32.7509 137.145 36.6359 137.145 41.4282C137.145 46.2205 141.03 50.1055 145.823 50.1055ZM145.823 48.3231C149.631 48.3231 152.717 45.2362 152.717 41.4282C152.717 37.6203 149.631 34.5333 145.823 34.5333C142.015 34.5333 138.928 37.6203 138.928 41.4282C138.928 45.2362 142.015 48.3231 145.823 48.3231Z" fill="#2B2B2B"/>
<path fill-rule="evenodd" clip-rule="evenodd" d="M111.151 50.1055C115.944 50.1055 119.829 46.2205 119.829 41.4282C119.829 36.6359 115.944 32.7509 111.151 32.7509C106.359 32.7509 102.474 36.6359 102.474 41.4282C102.474 46.2205 106.359 50.1055 111.151 50.1055ZM111.151 48.3231C114.959 48.3231 118.046 45.2362 118.046 41.4282C118.046 37.6203 114.959 34.5333 111.151 34.5333C107.344 34.5333 104.257 37.6203 104.257 41.4282C104.257 45.2362 107.344 48.3231 111.151 48.3231Z" fill="#2B2B2B"/>
</g>
<defs>
<filter id="filter0_d_7_74510" x="0.499863" y="0" width="158" height="89.4961" filterUnits="userSpaceOnUse" color-interpolation-filters="sRGB">
<feFlood flood-opacity="0" result="BackgroundImageFix"/>
<feColorMatrix in="SourceAlpha" type="matrix" values="0 0 0 0 0 0 0 0 0 0 0 0 0 0 0 0 0 0 127 0" result="hardAlpha"/>
<feOffset dy="4"/>
<feGaussianBlur stdDeviation="2"/>
<feComposite in2="hardAlpha" operator="out"/>
<feColorMatrix type="matrix" values="0 0 0 0 0 0 0 0 0 0 0 0 0 0 0 0 0 0 0.25 0"/>
<feBlend mode="normal" in2="BackgroundImageFix" result="effect1_dropShadow_7_74510"/>
<feBlend mode="normal" in="SourceGraphic" in2="effect1_dropShadow_7_74510" result="shape"/>
</filter>
</defs>
</svg>
