<svg width="151" height="82" viewBox="0 0 151 82" fill="none" xmlns="http://www.w3.org/2000/svg">
<path d="M0.499863 9.07403L8.06548 4.37173L0.499864 0L0.499863 9.07403Z" fill="#2B2B2B"/>
<path d="M16.6936 9.35741L9.9238 13.2693L3.62503 9.35436L9.91871 5.4426L16.6936 9.35741Z" fill="#2B2B2B"/>
<path d="M0.499863 9.63467L8.07056 14.3401L0.499863 18.7148V9.63467Z" fill="#2B2B2B"/>
<path d="M2.28223 68.7509V81.4962H0.499863V64.1416H0.942877L8.00888 73.1857L15.0749 64.1416H15.521V81.4962H13.7386V68.747L8.00888 76.0807L2.28223 68.7509Z" fill="#2B2B2B"/>
<path d="M50.7109 64.1416H38.035V81.4962H50.7109V79.7138H39.8174V73.7101H47.8966V71.9277H39.8174V65.924H50.7109V64.1416Z" fill="#2B2B2B"/>
<path fill-rule="evenodd" clip-rule="evenodd" d="M73.225 64.1416H79.5688C84.3611 64.1416 88.2461 68.0266 88.2461 72.8189C88.2461 77.6113 84.3611 81.4962 79.5688 81.4962H73.225V64.1416ZM79.5688 65.924H75.0073V79.7138H79.5688C83.3767 79.7138 86.4637 76.6269 86.4637 72.8189C86.4637 69.0109 83.3767 65.924 79.5688 65.924Z" fill="#2B2B2B"/>
<path d="M112.542 64.1416H110.76V81.4962H112.542V64.1416Z" fill="#2B2B2B"/>
<path fill-rule="evenodd" clip-rule="evenodd" d="M139.225 75.938L136.979 81.4962H135.057L142.068 64.1416H142.551L149.563 81.4962H147.641L145.395 75.938H139.225ZM144.675 74.1557L142.31 68.3016L139.945 74.1557H144.675Z" fill="#2B2B2B"/>
<path d="M0.499863 32.7509H2.28223V50.1055H0.499863V32.7509Z" fill="#2B2B2B"/>
<path d="M15.521 32.7509H13.0585L3.22031 41.4282L13.0585 50.1055H15.521L5.68279 41.4282L15.521 32.7509Z" fill="#2B2B2B"/>
<path d="M34.2797 32.7509H46.9556V34.5333H36.0621V40.537H44.1414V42.3194H36.0621V48.3231H46.9556V50.1055H34.2797V32.7509Z" fill="#2B2B2B"/>
<path fill-rule="evenodd" clip-rule="evenodd" d="M73.1664 32.7509H66.8226V50.1055H73.1664C77.9587 50.1055 81.8437 46.2206 81.8437 41.4282C81.8437 36.6359 77.9587 32.7509 73.1664 32.7509ZM68.6049 34.5333H73.1664C76.9743 34.5333 80.0613 37.6202 80.0613 41.4282C80.0613 45.2362 76.9743 48.3231 73.1664 48.3231H68.6049V34.5333Z" fill="#2B2B2B"/>
<path fill-rule="evenodd" clip-rule="evenodd" d="M141.823 50.1055C146.615 50.1055 150.5 46.2205 150.5 41.4282C150.5 36.6359 146.615 32.7509 141.823 32.7509C137.03 32.7509 133.145 36.6359 133.145 41.4282C133.145 46.2205 137.03 50.1055 141.823 50.1055ZM141.823 48.3231C145.631 48.3231 148.717 45.2362 148.717 41.4282C148.717 37.6203 145.631 34.5333 141.823 34.5333C138.015 34.5333 134.928 37.6203 134.928 41.4282C134.928 45.2362 138.015 48.3231 141.823 48.3231Z" fill="#2B2B2B"/>
<path fill-rule="evenodd" clip-rule="evenodd" d="M107.151 50.1055C111.944 50.1055 115.829 46.2205 115.829 41.4282C115.829 36.6359 111.944 32.7509 107.151 32.7509C102.359 32.7509 98.4742 36.6359 98.4742 41.4282C98.4742 46.2205 102.359 50.1055 107.151 50.1055ZM107.151 48.3231C110.959 48.3231 114.046 45.2362 114.046 41.4282C114.046 37.6203 110.959 34.5333 107.151 34.5333C103.344 34.5333 100.257 37.6203 100.257 41.4282C100.257 45.2362 103.344 48.3231 107.151 48.3231Z" fill="#2B2B2B"/>
</svg>
