<svg width="20" height="25" viewBox="0 0 20 25" fill="none" xmlns="http://www.w3.org/2000/svg">
<path d="M19 10.4961C19 17.4961 10 23.4961 10 23.4961C10 23.4961 1 17.4961 1 10.4961C1 8.10915 1.94821 5.81996 3.63604 4.13213C5.32387 2.44431 7.61305 1.49609 10 1.49609C12.3869 1.49609 14.6761 2.44431 16.364 4.13213C18.0518 5.81996 19 8.10915 19 10.4961Z" stroke="#0BA5EC" stroke-width="2" stroke-linecap="round" stroke-linejoin="round"/>
<path d="M10 13.4961C11.6569 13.4961 13 12.1529 13 10.4961C13 8.83924 11.6569 7.49609 10 7.49609C8.34315 7.49609 7 8.83924 7 10.4961C7 12.1529 8.34315 13.4961 10 13.4961Z" stroke="#0BA5EC" stroke-width="2" stroke-linecap="round" stroke-linejoin="round"/>
</svg>
