<svg width="183" height="80" viewBox="0 0 183 80" fill="none" xmlns="http://www.w3.org/2000/svg">
<path d="M0 17.345V0L14.3836 8.46095L0 17.345Z" fill="black"/>
<path d="M0 35.5357V18.1908L14.3836 27.0748L0 35.5357Z" fill="black"/>
<path d="M17.7673 10.1531L5.92197 17.768L17.7673 25.3828L30.4587 17.768L17.7673 10.1531Z" fill="black"/>
<path fill-rule="evenodd" clip-rule="evenodd" d="M165.623 79.1399C175.085 79.1399 182.756 71.469 182.756 62.0064C182.756 52.5439 175.085 44.873 165.623 44.873C156.16 44.873 148.489 52.5439 148.489 62.0064C148.489 71.469 156.16 79.1399 165.623 79.1399ZM165.623 74.2446C172.382 74.2446 177.861 68.7654 177.861 62.0064C177.861 55.2475 172.382 49.7683 165.623 49.7683C158.864 49.7683 153.384 55.2475 153.384 62.0064C153.384 68.7654 158.864 74.2446 165.623 74.2446Z" fill="black"/>
<path fill-rule="evenodd" clip-rule="evenodd" d="M126.461 79.1399C135.923 79.1399 143.594 71.469 143.594 62.0064C143.594 52.5439 135.923 44.873 126.461 44.873C116.998 44.873 109.327 52.5439 109.327 62.0064C109.327 71.469 116.998 79.1399 126.461 79.1399ZM126.461 74.2446C133.22 74.2446 138.699 68.7654 138.699 62.0064C138.699 55.2475 133.22 49.7683 126.461 49.7683C119.702 49.7683 114.223 55.2475 114.223 62.0064C114.223 68.7654 119.702 74.2446 126.461 74.2446Z" fill="black"/>
<path fill-rule="evenodd" clip-rule="evenodd" d="M70.1656 44.873V79.1399H87.299C96.7616 79.1399 104.432 71.469 104.432 62.0064C104.432 52.5439 96.7616 44.873 87.299 44.873H70.1656ZM86.4831 49.7683V49.7951C86.7528 49.7773 87.0249 49.7683 87.299 49.7683C94.058 49.7683 99.5372 55.2475 99.5372 62.0064C99.5372 68.7654 94.058 74.2446 87.299 74.2446C87.0249 74.2446 86.7528 74.2355 86.4831 74.2178V74.2446H75.0609V49.7683H86.4831Z" fill="black"/>
<path d="M35.8986 44.873V79.1399H65.2702V74.2446H40.7939V64.4541H62.8225V59.5588H40.7939V49.7683H65.2702V44.873H35.8986Z" fill="black"/>
<path d="M0 44.873H4.89527V79.1399H0V44.873Z" fill="black"/>
<path d="M24.4763 44.873H31.0033L13.8699 62.0064L31.0033 79.1399H24.4763L7.3429 62.0064L24.4763 44.873Z" fill="black"/>
</svg>
