<svg width="24" height="21" viewBox="0 0 24 21" fill="none" xmlns="http://www.w3.org/2000/svg">
<path d="M7.55016 20.2463C16.6045 20.2463 21.5583 12.743 21.5583 6.2382C21.5583 6.02726 21.5536 5.81164 21.5442 5.6007C22.5079 4.9038 23.3395 4.04059 24 3.05164C23.1025 3.45094 22.1496 3.71172 21.1739 3.82507C22.2013 3.20925 22.9705 2.24181 23.3391 1.1021C22.3726 1.6749 21.3156 2.07895 20.2134 2.29695C19.4708 1.5079 18.489 0.985454 17.4197 0.810389C16.3504 0.635324 15.2532 0.817388 14.2977 1.32843C13.3423 1.83948 12.5818 2.65104 12.1338 3.63765C11.6859 4.62426 11.5754 5.73095 11.8195 6.78664C9.86249 6.68843 7.94794 6.18004 6.19998 5.29444C4.45203 4.40883 2.90969 3.16577 1.67297 1.64585C1.0444 2.72958 0.852057 4.01198 1.13503 5.23243C1.418 6.45288 2.15506 7.51979 3.19641 8.21632C2.41463 8.1915 1.64998 7.98102 0.965625 7.60226V7.6632C0.964925 8.80049 1.3581 9.90292 2.07831 10.7831C2.79852 11.6633 3.80132 12.2669 4.91625 12.4913C4.19206 12.6895 3.43198 12.7183 2.69484 12.5757C3.00945 13.5538 3.62157 14.4092 4.44577 15.0227C5.26997 15.6361 6.26512 15.9769 7.29234 15.9976C5.54842 17.3674 3.39417 18.1105 1.17656 18.1069C0.783287 18.1063 0.390399 18.0822 0 18.0348C2.25286 19.4801 4.87353 20.2477 7.55016 20.2463Z" fill="#98A2B3"/>
</svg>
