<svg width="46" height="47" viewBox="0 0 46 47" fill="none" xmlns="http://www.w3.org/2000/svg">
<rect x="3" y="3.49609" width="40" height="40" rx="20" fill="#F2F4F7"/>
<g clip-path="url(#clip0_56_31317)">
<path d="M26.3333 26.8293L23 23.496M23 23.496L19.6667 26.8293M23 23.496V30.996M29.9917 28.821C30.8044 28.3779 31.4465 27.6767 31.8166 26.8282C32.1866 25.9796 32.2635 25.032 32.0352 24.1349C31.8068 23.2378 31.2862 22.4423 30.5556 21.8739C29.8249 21.3055 28.9257 20.9966 28 20.996H26.95C26.6978 20.0204 26.2276 19.1146 25.575 18.3468C24.9223 17.579 24.104 16.9692 23.1817 16.5632C22.2595 16.1571 21.2571 15.9655 20.2501 16.0026C19.2431 16.0397 18.2576 16.3046 17.3676 16.7774C16.4777 17.2502 15.7066 17.9186 15.1122 18.7323C14.5178 19.546 14.1156 20.4839 13.9358 21.4755C13.7561 22.467 13.8034 23.4864 14.0743 24.457C14.3453 25.4277 14.8327 26.3242 15.5 27.0793" stroke="#475467" stroke-width="1.66667" stroke-linecap="round" stroke-linejoin="round"/>
</g>
<rect x="3" y="3.49609" width="40" height="40" rx="20" stroke="#F9FAFB" stroke-width="6"/>
<defs>
<clipPath id="clip0_56_31317">
<rect width="20" height="20" fill="white" transform="translate(13 13.4961)"/>
</clipPath>
</defs>
</svg>
