<svg width="24" height="17" viewBox="0 0 24 17" fill="none" xmlns="http://www.w3.org/2000/svg">
<path d="M23.7609 3.6959C23.7609 3.6959 23.5266 2.04121 22.8047 1.31465C21.8906 0.358399 20.8688 0.353711 20.4 0.297461C17.0438 0.0537108 12.0047 0.0537109 12.0047 0.0537109H11.9953C11.9953 0.0537109 6.95625 0.0537108 3.6 0.297461C3.13125 0.353711 2.10938 0.358399 1.19531 1.31465C0.473438 2.04121 0.24375 3.6959 0.24375 3.6959C0.24375 3.6959 0 5.64121 0 7.58184V9.40059C0 11.3412 0.239062 13.2865 0.239062 13.2865C0.239062 13.2865 0.473437 14.9412 1.19062 15.6678C2.10469 16.624 3.30469 16.5912 3.83906 16.6943C5.76094 16.8771 12 16.9334 12 16.9334C12 16.9334 17.0438 16.924 20.4 16.685C20.8688 16.6287 21.8906 16.624 22.8047 15.6678C23.5266 14.9412 23.7609 13.2865 23.7609 13.2865C23.7609 13.2865 24 11.3459 24 9.40059V7.58184C24 5.64121 23.7609 3.6959 23.7609 3.6959ZM9.52031 11.6084V4.86309L16.0031 8.24746L9.52031 11.6084Z" fill="#98A2B3"/>
</svg>
