<svg width="135" height="34" viewBox="0 0 135 34" fill="none" xmlns="http://www.w3.org/2000/svg">
<g clip-path="url(#clip0_7_74469)">
<path d="M0.499878 17.9236H1.11181H24.9871V5.02368L0.499878 17.9236Z" fill="#5AD6CD"/>
<path d="M49.4728 17.9236H48.8608H24.9872V30.8235L49.4728 17.9236Z" fill="#5AD6CD"/>
<path d="M65.1156 14.4702V16.6458H54.7936V14.9255L61.3533 7.1977H54.9305V5.02368H64.9391V6.74879L58.3563 14.4766L65.1156 14.4702Z" fill="#3C3C3C"/>
<path d="M80.0725 5.02368L74.9445 16.6458H72.0564L66.9284 5.02368H69.8396L73.5557 13.6429L77.3856 5.02368H80.0725Z" fill="#3C3C3C"/>
<path d="M83.5874 16.0365C82.6429 15.5491 81.8578 14.8143 81.3211 13.9153C80.766 12.9796 80.4811 11.9155 80.4964 10.8355C80.4802 9.75838 80.7653 8.6972 81.3211 7.76525C81.8619 6.86957 82.649 6.13832 83.594 5.65375C84.6108 5.15286 85.7347 4.89185 86.8747 4.89185C88.0146 4.89185 89.1385 5.15286 90.1554 5.65375C91.0976 6.13977 91.8822 6.87082 92.4217 7.76525C92.9775 8.6972 93.2626 9.75838 93.2464 10.8355C93.2617 11.9155 92.9768 12.9796 92.4217 13.9153C91.8828 14.8149 91.0954 15.5497 90.1488 16.0365C89.1319 16.5373 88.008 16.7984 86.8681 16.7984C85.7281 16.7984 84.6042 16.5373 83.5874 16.0365ZM89.4098 13.4712C90.0817 12.8043 90.4176 11.9268 90.4176 10.8387C90.4176 9.75063 90.0795 8.87151 89.4032 8.20134C88.72 7.55867 87.8065 7.19937 86.8557 7.19937C85.9049 7.19937 84.9914 7.55867 84.3082 8.20134C83.6484 8.8683 83.3185 9.74635 83.3185 10.8355C83.3185 11.9246 83.6484 12.8021 84.3082 13.468C84.9914 14.1107 85.9049 14.47 86.8557 14.47C87.8065 14.47 88.72 14.1107 89.4032 13.468L89.4098 13.4712Z" fill="#3C3C3C"/>
<path d="M105.616 6.17632C106.526 7.0314 106.982 8.30118 106.983 9.98568V16.6457H104.179V10.3336C104.179 9.31926 103.933 8.55397 103.44 8.03771C102.947 7.52146 102.246 7.26387 101.335 7.26494C100.305 7.26494 99.4912 7.56582 98.8941 8.16758C98.297 8.76934 97.9985 9.6367 97.9985 10.7697V16.6457H95.1945V5.02358H97.8583V6.52423C98.3307 5.9826 98.9344 5.56384 99.6149 5.30575C100.371 5.02016 101.177 4.87969 101.989 4.89211C103.495 4.89211 104.704 5.32018 105.616 6.17632Z" fill="#3C3C3C"/>
<path d="M114.379 11.6612L112.296 13.5852V16.6538H109.492V0.496094H112.296V10.2472L118.103 5.02371H121.463L116.454 9.89924L121.918 16.6458H118.521L114.379 11.6612Z" fill="#3C3C3C"/>
<path d="M124.849 16.0365C123.902 15.5501 123.115 14.8152 122.576 13.9153C122.021 12.9796 121.736 11.9155 121.752 10.8355C121.735 9.75838 122.02 8.6972 122.576 7.76525C123.117 6.86957 123.904 6.13832 124.849 5.65375C125.866 5.15286 126.99 4.89185 128.13 4.89185C129.27 4.89185 130.394 5.15286 131.411 5.65375C132.355 6.13881 133.142 6.86994 133.683 7.76525C134.236 8.698 134.519 9.75913 134.5 10.8355C134.518 11.9148 134.236 12.9788 133.683 13.9153C133.145 14.8149 132.357 15.5497 131.411 16.0365C130.394 16.5373 129.27 16.7984 128.13 16.7984C126.99 16.7984 125.866 16.5373 124.849 16.0365ZM130.672 13.4712C131.342 12.8043 131.678 11.9268 131.679 10.8387C131.681 9.75063 131.345 8.87151 130.672 8.20134C129.988 7.55867 129.075 7.19937 128.124 7.19937C127.173 7.19937 126.26 7.55867 125.577 8.20134C124.917 8.8683 124.587 9.74635 124.587 10.8355C124.587 11.9246 124.917 12.8021 125.577 13.468C126.26 14.1107 127.173 14.47 128.124 14.47C129.075 14.47 129.988 14.1107 130.672 13.468V13.4712Z" fill="#3C3C3C"/>
<path d="M62.5475 20.9585V30.8234H60.9063V29.9063C60.6277 30.24 60.2676 30.5007 59.8589 30.6646C59.4228 30.8366 58.9556 30.9222 58.485 30.9164C57.824 30.9261 57.1715 30.771 56.5898 30.4658C56.0333 30.1691 55.5755 29.7241 55.2703 29.1832C54.9549 28.5951 54.7902 27.9417 54.7902 27.2785C54.7902 26.6153 54.9549 25.9619 55.2703 25.3739C55.576 24.8333 56.0337 24.3885 56.5898 24.0913C57.1711 23.7848 57.8238 23.6291 58.485 23.6391C58.9366 23.6349 59.3847 23.716 59.8045 23.878C60.2006 24.0344 60.5524 24.2807 60.8304 24.5963V20.9585H62.5475ZM59.7979 29.2217C60.1275 29.0383 60.3977 28.769 60.5781 28.4441C60.7668 28.0812 60.8651 27.6803 60.8651 27.2737C60.8651 26.8671 60.7668 26.4662 60.5781 26.1033C60.3977 25.7785 60.1275 25.5091 59.7979 25.3258C59.4575 25.1469 59.0765 25.0532 58.6895 25.0532C58.3025 25.0532 57.9215 25.1469 57.5811 25.3258C57.2516 25.5088 56.9818 25.7782 56.8026 26.1033C56.6128 26.4659 56.5139 26.8669 56.5139 27.2737C56.5139 27.6805 56.6128 28.0815 56.8026 28.4441C56.9818 28.7692 57.2516 29.0387 57.5811 29.2217C57.9215 29.4006 58.3025 29.4943 58.6895 29.4943C59.0765 29.4943 59.4575 29.4006 59.7979 29.2217Z" fill="#3C3C3C"/>
<path d="M66.5011 23.7241H64.7907V30.825H66.5011V23.7241Z" fill="#3C3C3C"/>
<path d="M75.9935 23.7243V29.7478C75.9935 32.2467 74.6806 33.4962 72.0547 33.4962C71.3799 33.4996 70.7077 33.4128 70.0572 33.2381C69.4891 33.0953 68.9578 32.8392 68.4969 32.4862L69.2639 31.2356C69.6234 31.5146 70.0343 31.7247 70.4745 31.8545C70.9534 32.0086 71.4546 32.087 71.959 32.0869C72.7628 32.0869 73.3511 31.9101 73.7239 31.5563C74.0967 31.2025 74.2836 30.6616 74.2847 29.9338V29.5618C73.9901 29.8738 73.6247 30.1148 73.2175 30.2656C72.777 30.4293 72.3085 30.5103 71.837 30.5045C71.1826 30.5142 70.536 30.366 69.955 30.0732C69.4078 29.794 68.9511 29.3728 68.6355 28.8564C68.3063 28.3128 68.1385 27.6913 68.1505 27.0607C68.1335 26.434 68.2963 25.815 68.6206 25.2731C68.9368 24.7604 69.3938 24.3434 69.9401 24.069C70.5226 23.7808 71.1686 23.635 71.8221 23.6442C72.3154 23.6382 72.8053 23.7242 73.2654 23.8975C73.6896 24.0598 74.0639 24.3253 74.3523 24.6686V23.7243H75.9935ZM73.6843 28.5341C73.8897 28.3463 74.0515 28.1179 74.1587 27.8644C74.266 27.6108 74.3162 27.3379 74.3061 27.0639C74.3147 26.7942 74.2636 26.5258 74.1563 26.2769C74.049 26.0279 73.8881 25.8043 73.6843 25.621C73.2334 25.2602 72.6676 25.0629 72.0836 25.0629C71.4995 25.0629 70.9337 25.2602 70.4828 25.621C70.2788 25.8041 70.1176 26.0277 70.0103 26.2767C69.9031 26.5256 69.8521 26.7941 69.861 27.0639C69.8509 27.3379 69.9011 27.6108 70.0084 27.8644C70.1156 28.1179 70.2774 28.3463 70.4828 28.5341C70.9319 28.8987 71.4984 29.0984 72.0836 29.0984C72.6687 29.0984 73.2352 28.8987 73.6843 28.5341Z" fill="#3C3C3C"/>
<path d="M79.9472 23.7241H78.2367V30.825H79.9472V23.7241Z" fill="#3C3C3C"/>
<path d="M86.5813 30.4386C86.3647 30.6052 86.1155 30.7274 85.8489 30.7977C85.5532 30.8785 85.2473 30.9184 84.9401 30.9164C84.1363 30.9164 83.5161 30.7127 83.0796 30.3055C82.643 29.8983 82.4231 29.3045 82.4198 28.5243V25.1061H81.2157V23.777H82.4198V22.1545H84.1253V23.777H86.0881V25.1061H84.1253V28.4842C84.1051 28.7704 84.1983 29.0532 84.3859 29.2746C84.484 29.3695 84.6019 29.4429 84.7317 29.4899C84.8614 29.5369 84.9999 29.5564 85.138 29.5472C85.4824 29.559 85.8205 29.456 86.0963 29.2554L86.5813 30.4386Z" fill="#3C3C3C"/>
<path d="M93.2497 24.3959C93.8182 24.8961 94.103 25.6518 94.1041 26.6629V30.8234H92.491V29.9592C92.271 30.2776 91.9587 30.5254 91.5937 30.671C91.1485 30.8451 90.6714 30.9286 90.1917 30.9163C89.6982 30.9272 89.2081 30.8342 88.755 30.6438C88.3715 30.4833 88.0422 30.2211 87.805 29.8871C87.583 29.562 87.4679 29.1789 87.4751 28.7888C87.465 28.4952 87.526 28.2034 87.6533 27.9369C87.7805 27.6704 87.9703 27.4366 88.2074 27.2545C88.6935 26.8686 89.4632 26.6757 90.5166 26.6757H92.4052V26.5699C92.4052 26.0729 92.2524 25.6913 91.9467 25.4252C91.6399 25.159 91.1863 25.0276 90.5859 25.0276C90.1748 25.027 89.7662 25.0898 89.3752 25.2135C89.0086 25.3214 88.6669 25.4973 88.3691 25.7314L87.6994 24.5209C88.1139 24.2223 88.5821 24.0015 89.08 23.87C89.6363 23.7168 90.2122 23.6407 90.7904 23.6439C91.8593 23.6439 92.679 23.8946 93.2497 24.3959ZM91.6894 29.4205C92.017 29.238 92.2672 28.9482 92.3953 28.6028V27.7788H90.6304C89.6408 27.7788 89.146 28.0935 89.146 28.7231C89.1418 28.8631 89.1734 29.002 89.2379 29.1273C89.3024 29.2526 89.3977 29.3605 89.5154 29.4413C89.8191 29.635 90.1788 29.7283 90.5414 29.7075C90.9438 29.7157 91.3409 29.6164 91.6894 29.4205Z" fill="#3C3C3C"/>
<path d="M96.2929 20.9585H98.0033V30.8234H96.2929V20.9585Z" fill="#3C3C3C"/>
<path d="M66.5013 20.9585H64.7958V22.6162H66.5013V20.9585Z" fill="#3C3C3C"/>
<path d="M79.9439 20.9585H78.2384V22.6162H79.9439V20.9585Z" fill="#3C3C3C"/>
</g>
<defs>
<clipPath id="clip0_7_74469">
<rect width="134" height="33" fill="white" transform="translate(0.499878 0.496094)"/>
</clipPath>
</defs>
</svg>
